<svg width="20" height="20" viewBox="0 0 20 20" fill="none" xmlns="http://www.w3.org/2000/svg">
<path d="M19 1L12.6138 18.6847C12.5707 18.7788 12.5015 18.8585 12.4144 18.9144C12.3274 18.9703 12.2261 19 12.1226 19C12.0191 19 11.9178 18.9703 11.8307 18.9144C11.7437 18.8585 11.6745 18.7788 11.6314 18.6847L8.19265 11.8073L1.31525 8.36865C1.22119 8.32554 1.14148 8.25633 1.08559 8.16925C1.02971 8.08217 1 7.98087 1 7.8774C1 7.77393 1.02971 7.67264 1.08559 7.58555C1.14148 7.49847 1.22119 7.42926 1.31525 7.38616L19 1Z" stroke="white" stroke-width="2" stroke-linecap="round" stroke-linejoin="round"/>
</svg>
