<svg width="189" height="171" viewBox="0 0 189 171" fill="none" xmlns="http://www.w3.org/2000/svg">
<path fill-rule="evenodd" clip-rule="evenodd" d="M129.505 16.6416L137.316 18.8086L132.548 1L119.277 13.804L127.715 16.1451C126.817 18.6091 125.821 21.0321 124.705 23.4069L123.948 25.0273L123.113 26.6187C123.077 26.6885 123.041 26.7584 123.005 26.8282C122.491 27.8191 121.978 28.808 121.375 29.7651C120.196 31.8506 118.87 33.878 117.485 35.8618C114.722 39.8439 111.572 43.608 108.138 47.1977C104.721 50.7946 100.865 54.1082 96.6655 57.0948L93.4381 59.2602C92.7337 59.7016 92.0153 60.1281 91.2962 60.555C90.8907 60.7958 90.485 61.0366 90.0816 61.2803C87.8267 62.6101 85.4599 63.8091 83.0673 64.9572C78.2476 67.2171 73.1612 69.0701 67.9026 70.5234C57.4113 73.51 46.1884 74.6508 35.0344 74.1567L35 74.5201C46.1626 75.6028 57.6265 74.8543 68.5395 72.2674C73.9874 70.9522 79.3062 69.2227 84.3841 67.05C86.9058 65.9455 89.4102 64.7901 91.8029 63.4894C92.2168 63.2589 92.6339 63.0311 93.0512 62.8031C93.8312 62.3771 94.612 61.9506 95.3745 61.5056L98.8258 59.3692C103.336 56.4262 107.553 53.1272 111.391 49.5302C115.213 45.9188 118.569 41.9367 121.246 37.6494C122.554 35.4912 123.819 33.3185 124.86 31.0658C125.416 29.979 125.864 28.8575 126.31 27.742L126.341 27.6651L127.029 25.9574L127.597 24.2135C128.416 21.7206 129.061 19.1898 129.505 16.6416Z" fill="url(#paint0_linear_119_260)"/>
<path d="M149.253 140.616C133.69 154.53 109.805 153.187 95.8844 137.594C81.9638 122.038 83.3074 98.1639 98.8701 84.2496C114.433 70.3352 138.355 71.6781 152.239 87.2338C166.159 102.827 164.816 126.702 149.253 140.616Z" fill="url(#paint1_radial_119_260)" style="mix-blend-mode:overlay"/>
<path d="M178.332 55.8308C165.161 67.6174 144.956 66.4575 133.169 53.2864C121.383 40.1155 122.543 19.9099 135.714 8.12339C148.885 -3.62574 169.09 -2.50321 180.877 10.6678C192.626 23.8388 191.503 44.0443 178.332 55.8308Z" fill="url(#paint2_radial_119_260)" style="mix-blend-mode:overlay"/>
<path d="M105.147 45.5935C97.3736 52.5477 85.4176 51.8819 78.4587 44.0769C71.4998 36.3089 72.2031 24.3609 79.9764 17.4067C87.7496 10.4525 99.7056 11.1184 106.665 18.9233C113.623 26.6913 112.92 38.6393 105.147 45.5935Z" fill="url(#paint3_radial_119_260)" style="mix-blend-mode:overlay"/>
<path d="M26.6486 104.494C20.0665 110.353 9.96626 109.824 4.06503 103.209C-1.83621 96.6324 -1.23096 86.5027 5.35118 80.6441C11.9333 74.7477 22.0335 75.3146 27.9348 81.9292C33.7982 88.506 33.2307 98.5979 26.6486 104.494Z" fill="url(#paint4_radial_119_260)" style="mix-blend-mode:overlay"/>
<path d="M38.7901 123.096H28.1729V170.561H38.7901V123.096Z" fill="url(#paint5_linear_119_260)"/>
<path d="M19.679 151.987H8V170.561H19.679V151.987Z" fill="url(#paint6_linear_119_260)"/>
<path d="M58.963 123.096H48.3457V170.561H58.963V123.096Z" fill="url(#paint7_linear_119_260)"/>
<path d="M79.1358 109.682H68.5186V170.561H79.1358V109.682Z" fill="url(#paint8_linear_119_260)"/>
<path d="M99.3087 95.2356H88.6914V170.56H99.3087V95.2356Z" fill="url(#paint9_linear_119_260)"/>
<path d="M119.482 83.8855H108.864V170.561H119.482V83.8855Z" fill="url(#paint10_linear_119_260)"/>
<path d="M139.654 62.2166H129.037V170.561H139.654V62.2166Z" fill="url(#paint11_linear_119_260)"/>
<path d="M159.827 41.5796H149.21V170.56H159.827V41.5796Z" fill="url(#paint12_linear_119_260)"/>
<path d="M180 8.56055H168.321V170.561H180V8.56055Z" fill="url(#paint13_linear_119_260)"/>
<defs>
<linearGradient id="paint0_linear_119_260" x1="52.3938" y1="65.75" x2="104.037" y2="-1.19135" gradientUnits="userSpaceOnUse">
<stop stop-color="#5189F7"/>
<stop offset="1" stop-color="#50EAFD"/>
</linearGradient>
<radialGradient id="paint1_radial_119_260" cx="0" cy="0" r="1" gradientUnits="userSpaceOnUse" gradientTransform="translate(1414.76 -4282.41) scale(8142.94 20176.2)">
<stop offset="0.2938" stop-color="#85B9D6" stop-opacity="0.86"/>
<stop offset="0.3754" stop-color="#5EBBEF"/>
<stop offset="0.4794" stop-color="#0F6B9F" stop-opacity="0.46"/>
<stop offset="0.5846" stop-color="#319EDB" stop-opacity="0.53"/>
<stop offset="0.6894" stop-color="#053C5B"/>
<stop offset="0.7937" stop-color="#136391"/>
<stop offset="0.8975" stop-color="#034D76"/>
<stop offset="1" stop-color="#004C77"/>
</radialGradient>
<radialGradient id="paint2_radial_119_260" cx="0" cy="0" r="1" gradientUnits="userSpaceOnUse" gradientTransform="translate(1249.15 -3686.73) scale(6890.18 17072.2)">
<stop offset="0.2938" stop-color="#85B9D6" stop-opacity="0.86"/>
<stop offset="0.3754" stop-color="#5EBBEF"/>
<stop offset="0.4794" stop-color="#0F6B9F" stop-opacity="0.46"/>
<stop offset="0.5846" stop-color="#319EDB" stop-opacity="0.53"/>
<stop offset="0.6894" stop-color="#053C5B"/>
<stop offset="0.7937" stop-color="#136391"/>
<stop offset="0.8975" stop-color="#034D76"/>
<stop offset="1" stop-color="#004C77"/>
</radialGradient>
<radialGradient id="paint3_radial_119_260" cx="0" cy="0" r="1" gradientUnits="userSpaceOnUse" gradientTransform="translate(737.912 -2165.92) scale(4071.47 10088.1)">
<stop offset="0.2938" stop-color="#85B9D6" stop-opacity="0.86"/>
<stop offset="0.3754" stop-color="#5EBBEF"/>
<stop offset="0.4794" stop-color="#0F6B9F" stop-opacity="0.46"/>
<stop offset="0.5846" stop-color="#319EDB" stop-opacity="0.53"/>
<stop offset="0.6894" stop-color="#053C5B"/>
<stop offset="0.7937" stop-color="#136391"/>
<stop offset="0.8975" stop-color="#034D76"/>
<stop offset="1" stop-color="#004C77"/>
</radialGradient>
<radialGradient id="paint4_radial_119_260" cx="0" cy="0" r="1" gradientUnits="userSpaceOnUse" gradientTransform="translate(562.058 -1766.79) scale(3445.09 8536.08)">
<stop offset="0.2938" stop-color="#85B9D6" stop-opacity="0.86"/>
<stop offset="0.3754" stop-color="#5EBBEF"/>
<stop offset="0.4794" stop-color="#0F6B9F" stop-opacity="0.46"/>
<stop offset="0.5846" stop-color="#319EDB" stop-opacity="0.53"/>
<stop offset="0.6894" stop-color="#053C5B"/>
<stop offset="0.7937" stop-color="#136391"/>
<stop offset="0.8975" stop-color="#034D76"/>
<stop offset="1" stop-color="#004C77"/>
</radialGradient>
<linearGradient id="paint5_linear_119_260" x1="29.9778" y1="164.628" x2="43.7359" y2="161.742" gradientUnits="userSpaceOnUse">
<stop stop-color="#5189F7"/>
<stop offset="1" stop-color="#50EAFD"/>
</linearGradient>
<linearGradient id="paint6_linear_119_260" x1="9.98543" y1="168.239" x2="21.7103" y2="161.327" gradientUnits="userSpaceOnUse">
<stop stop-color="#5189F7"/>
<stop offset="1" stop-color="#50EAFD"/>
</linearGradient>
<linearGradient id="paint7_linear_119_260" x1="50.1506" y1="164.628" x2="63.9088" y2="161.742" gradientUnits="userSpaceOnUse">
<stop stop-color="#5189F7"/>
<stop offset="1" stop-color="#50EAFD"/>
</linearGradient>
<linearGradient id="paint8_linear_119_260" x1="70.3235" y1="162.951" x2="84.3127" y2="160.664" gradientUnits="userSpaceOnUse">
<stop stop-color="#5189F7"/>
<stop offset="1" stop-color="#50EAFD"/>
</linearGradient>
<linearGradient id="paint9_linear_119_260" x1="90.4963" y1="161.145" x2="104.613" y2="159.279" gradientUnits="userSpaceOnUse">
<stop stop-color="#5189F7"/>
<stop offset="1" stop-color="#50EAFD"/>
</linearGradient>
<linearGradient id="paint10_linear_119_260" x1="110.669" y1="159.726" x2="124.845" y2="158.098" gradientUnits="userSpaceOnUse">
<stop stop-color="#5189F7"/>
<stop offset="1" stop-color="#50EAFD"/>
</linearGradient>
<linearGradient id="paint11_linear_119_260" x1="130.842" y1="157.018" x2="145.085" y2="155.709" gradientUnits="userSpaceOnUse">
<stop stop-color="#5189F7"/>
<stop offset="1" stop-color="#50EAFD"/>
</linearGradient>
<linearGradient id="paint12_linear_119_260" x1="151.015" y1="154.438" x2="165.293" y2="153.336" gradientUnits="userSpaceOnUse">
<stop stop-color="#5189F7"/>
<stop offset="1" stop-color="#50EAFD"/>
</linearGradient>
<linearGradient id="paint13_linear_119_260" x1="170.306" y1="150.311" x2="186.034" y2="149.248" gradientUnits="userSpaceOnUse">
<stop stop-color="#5189F7"/>
<stop offset="1" stop-color="#50EAFD"/>
</linearGradient>
</defs>
</svg>
