<svg width="22" height="22" viewBox="0 0 22 22" fill="none" xmlns="http://www.w3.org/2000/svg">
<path d="M11.75 2.975V2.97486L11.7435 2.97514C11.5356 2.98418 11.3492 3.04826 11.1901 3.16991C11.03 3.29236 10.925 3.45463 10.8779 3.65134L8.45438 13.0572C8.29048 13.6933 7.49774 13.9111 7.03192 13.4479L6.19591 12.6166C6.19583 12.6165 6.19576 12.6164 6.19568 12.6164C6.02021 12.441 5.80676 12.35 5.5625 12.35C5.31813 12.35 5.10461 12.4411 4.92909 12.6166L3.94464 13.601C3.78523 13.7604 3.56903 13.85 3.3436 13.85H3C2.53056 13.85 2.15 13.4694 2.15 13V3C2.15 2.53056 2.53056 2.15 3 2.15H19C19.4694 2.15 19.85 2.53056 19.85 3V11.5C19.85 11.9694 19.4694 12.35 19 12.35H17.8498C17.4602 12.35 17.1206 12.0852 17.0255 11.7075L16.372 9.11182L16.3721 9.11181L16.3713 9.10897C16.3164 8.90759 16.2088 8.74201 16.0481 8.61913C15.8884 8.49696 15.7038 8.43594 15.5 8.43594H14.4568C14.0651 8.43594 13.7241 8.16833 13.6311 7.7879L12.6227 3.66541C12.5767 3.45557 12.4733 3.28318 12.3099 3.15819C12.1489 3.03509 11.96 2.975 11.75 2.975ZM8.5625 17.15V17.1501L8.56902 17.1499C8.77693 17.1408 8.96329 17.0767 9.12237 16.9551C9.28251 16.8326 9.38751 16.6703 9.43466 16.4736L11.2165 9.54338C11.3493 9.02669 12.0835 9.02929 12.2133 9.54587C12.2594 9.75555 12.3627 9.92783 12.5261 10.0527C12.6871 10.1759 12.8759 10.2359 13.0859 10.2359H14.1353C14.5245 10.2359 14.864 10.5003 14.9594 10.8777L15.6118 13.4602C15.6579 13.6697 15.7612 13.8419 15.9245 13.9668C16.0855 14.0899 16.2744 14.15 16.4844 14.15H19C19.4694 14.15 19.85 14.5306 19.85 15V19C19.85 19.4694 19.4694 19.85 19 19.85H3C2.53056 19.85 2.15 19.4694 2.15 19V16.5C2.15 16.0306 2.53056 15.65 3 15.65H4.0625C4.30687 15.65 4.52039 15.5589 4.69591 15.3834L4.96146 15.1179C5.2934 14.7859 5.8316 14.7859 6.16354 15.1179L7.92909 16.8834C8.10461 17.0589 8.31813 17.15 8.5625 17.15ZM21.65 1.5C21.65 0.864873 21.1351 0.35 20.5 0.35H1.5C0.864873 0.35 0.35 0.864872 0.35 1.5V20.5C0.35 21.1351 0.864872 21.65 1.5 21.65H20.5C21.1351 21.65 21.65 21.1351 21.65 20.5V1.5Z" fill="white" stroke="white" stroke-width="0.3"/>
</svg>
