<svg width="45" height="44" viewBox="0 0 45 44" fill="none" xmlns="http://www.w3.org/2000/svg">
<path d="M20.4607 14.9036C20.7303 15.1726 20.8598 15.4978 20.849 15.8789C20.8373 16.2601 20.6966 16.5852 20.427 16.8543L16.618 20.6547L31.6517 20.6547C32.0337 20.6547 32.3542 20.7839 32.613 21.0422C32.871 21.2996 33 21.6188 33 22C33 22.3812 32.871 22.7009 32.613 22.9592C32.3542 23.2166 32.0337 23.3453 31.6517 23.3453L16.618 23.3453L20.4607 27.1794C20.7303 27.4484 20.8652 27.7682 20.8652 28.1386C20.8652 28.5081 20.7303 28.8274 20.4607 29.0964C20.191 29.3655 19.8706 29.5 19.4993 29.5C19.129 29.5 18.809 29.3655 18.5393 29.0964L12.3708 22.9417C12.236 22.8072 12.1402 22.6614 12.0836 22.5045C12.0279 22.3475 12 22.1794 12 22C12 21.8206 12.0279 21.6525 12.0836 21.4955C12.1402 21.3386 12.236 21.1928 12.3708 21.0583L18.573 14.87C18.8202 14.6233 19.129 14.5 19.4993 14.5C19.8706 14.5 20.191 14.6345 20.4607 14.9036Z" fill="white"/>
</svg>
