<svg width="22" height="24" viewBox="0 0 22 24" fill="none" xmlns="http://www.w3.org/2000/svg">
<path d="M1.22217 4.66667C1.22217 5.63913 2.25232 6.57176 4.08601 7.25939C5.9197 7.94703 8.40672 8.33333 10.9999 8.33333C13.5932 8.33333 16.0802 7.94703 17.9139 7.25939C19.7476 6.57176 20.7777 5.63913 20.7777 4.66667C20.7777 3.69421 19.7476 2.76158 17.9139 2.07394C16.0802 1.38631 13.5932 1 10.9999 1C8.40672 1 5.9197 1.38631 4.08601 2.07394C2.25232 2.76158 1.22217 3.69421 1.22217 4.66667Z" stroke="white" stroke-width="2" stroke-linecap="round" stroke-linejoin="round"/>
<path d="M1.22217 4.66663V12C1.22217 12.9724 2.25232 13.9051 4.08601 14.5927C5.9197 15.2803 8.40672 15.6666 10.9999 15.6666C13.5932 15.6666 16.0802 15.2803 17.9139 14.5927C19.7476 13.9051 20.7777 12.9724 20.7777 12V4.66663" stroke="white" stroke-width="2" stroke-linecap="round" stroke-linejoin="round"/>
<path d="M1.22217 12V19.3333C1.22217 20.3058 2.25232 21.2384 4.08601 21.9261C5.9197 22.6137 8.40672 23 10.9999 23C13.5932 23 16.0802 22.6137 17.9139 21.9261C19.7476 21.2384 20.7777 20.3058 20.7777 19.3333V12" stroke="white" stroke-width="2" stroke-linecap="round" stroke-linejoin="round"/>
</svg>
