<svg width="240" height="58" viewBox="0 0 240 58" fill="none" xmlns="http://www.w3.org/2000/svg">
<path d="M26.0166 25.4481C23.9462 25.3911 22.8601 24.1798 22.2135 22.9774C21.879 22.3556 21.7254 21.8226 21.5215 21.3358C20.9111 19.878 19.4664 19.0386 17.9062 19.0386C15.6183 19.0386 13.7637 20.8932 13.7637 23.1813C13.7637 25.4692 15.6183 27.3237 17.9062 27.3237C18.8482 27.3237 19.9609 27.0376 20.9796 27.2637C24.2124 27.9807 25.437 31.4824 25.1602 34.4671C25.0205 35.9735 24.4316 37.3475 23.1673 37.9816C21.9719 38.5812 20.9942 38.1004 19.7756 38.8006C18.7571 39.386 18.0711 40.4847 18.0711 41.7435C18.0711 43.6176 19.5898 45.1365 21.4639 45.1365C22.0484 45.1365 22.6112 45.0009 23.1048 44.7511C24.0778 44.2586 24.7118 43.3966 24.8197 42.3003C24.8835 41.6502 24.8122 40.9985 25.0688 40.2609C25.5682 38.8248 26.95 37.4184 29.5081 37.4262C31.729 37.4328 33.8733 38.5391 34.1348 42.0117C34.1661 42.4249 34.1738 42.8351 34.1592 43.2405C34.0632 45.266 33.418 46.3767 32.7748 47.4734C32.0413 48.7238 31.4644 49.8783 31.4495 51.3574C31.4429 52.0368 31.5628 52.7292 31.8232 53.4015C32.9226 56.2362 36.1124 57.6437 38.9473 56.545C41.4533 55.5737 42.844 52.9686 42.3754 50.4201C42.115 48.997 41.3722 47.9686 40.4947 46.8561C40.0055 46.2359 39.5241 45.6064 39.1508 44.7181H39.1541C38.9458 44.1777 38.7798 43.6147 38.6605 43.0333C38.5792 42.594 38.5189 42.1052 38.483 41.5555C38.4364 40.8363 38.4628 40.129 38.5552 39.4412L38.5402 39.4434C38.7195 38.1277 39.1426 36.8813 39.7652 35.7565C40.561 34.3179 41.2711 33.4887 42.5775 32.478C44.1672 31.2487 46.1226 30.4548 48.2764 30.2932C53.1468 29.9275 53.7594 32.2198 56.9009 32.8584C57.9163 33.0645 59.0013 32.9871 60.0355 32.5742C62.8589 31.4462 64.2342 28.2418 63.1065 25.4184C62.1942 23.1352 59.9251 21.7993 57.598 21.9668C55.6107 22.1091 54.5106 23.1208 53.0539 24.3288C51.988 25.2125 50.7394 26.0273 47.9719 26.2352C42.1181 26.6747 37.0152 22.2856 36.5754 16.432C36.356 13.5111 37.0768 12.1922 37.8289 10.9027C38.543 9.6787 39.1351 8.55714 39.1949 7.11175C39.3038 4.52264 37.5638 2.13678 34.9467 1.52391C31.9866 0.830807 29.0238 2.66919 28.3302 5.62934C28.1658 6.33154 28.1436 7.03351 28.2449 7.70556C28.4654 9.16801 29.1978 10.2311 30.0983 11.3672C31.0537 12.5724 32.0152 13.7979 32.2375 16.758C32.5729 21.2234 30.8486 25.5802 26.0166 25.4481ZM0.94161 21.8057C1.17567 21.8068 1.40065 21.868 1.62319 21.932C2.00753 22.0034 2.38257 22.1158 2.76204 22.2084C3.20933 22.3228 3.66682 22.4139 4.09039 22.6039C4.39672 22.7315 4.69306 22.8816 4.98963 23.0299C5.40213 23.219 5.78315 23.4763 6.21825 23.6131C6.88365 23.852 7.60535 23.746 8.28604 23.9028C8.8118 24.0395 9.36371 24.2714 9.66582 24.7481C9.79637 25.0354 9.95175 25.3229 9.99054 25.6403C10.0114 26.145 9.87838 26.637 9.76579 27.1245C9.62903 27.697 9.63967 28.3314 9.92892 28.8571C10.1579 29.2605 10.5504 29.5662 10.9957 29.6952C11.5166 29.863 12.0769 29.8472 12.6125 29.7665C12.9531 29.7109 13.2963 29.7759 13.6349 29.8164C14.1122 29.9004 14.5668 30.0879 14.9844 30.3313C15.5159 30.6627 15.9348 31.1581 16.2045 31.7213C16.5616 32.3359 16.6175 33.0707 16.5641 33.7654C16.4548 34.6522 16.0762 35.479 15.6101 36.2321C15.4647 36.4387 15.308 36.6373 15.171 36.8508C14.7756 37.447 14.5191 38.1295 14.3766 38.8288C14.2095 39.7129 14.43 40.6024 14.6126 41.4651C14.6958 41.8497 14.8558 42.211 15.0351 42.5587C15.3195 43.2013 15.6903 43.8011 16.0651 44.3938C16.6729 45.2573 17.305 46.1114 18.06 46.8537C18.3809 47.185 18.7389 47.4761 19.0847 47.7802C19.6211 48.2747 20.1511 48.7796 20.6139 49.345C20.9082 49.7105 21.2309 50.0581 21.4641 50.4688C21.6033 50.7177 21.7611 50.9595 21.8507 51.2328C21.9863 51.6254 22.1353 52.0168 22.2031 52.4287C22.2909 52.9409 22.3268 53.4636 22.2993 53.9827C22.2632 54.3646 22.2714 54.7487 22.2344 55.1304C22.2264 55.9675 22.6154 56.805 23.275 57.3243C23.5029 57.5025 23.7451 57.6694 24.0173 57.7731C20.5961 57.1913 17.2889 55.9596 14.3014 54.195C9.42023 51.3248 5.41587 46.9918 2.93736 41.9004C1.44587 38.8536 0.510276 35.5399 0.154968 32.1675C-0.206767 28.7035 0.0685244 25.1777 0.94161 21.8057ZM17.4349 2.55814C20.3997 1.25904 23.5862 0.472397 26.8132 0.226807C26.0847 0.585882 25.3964 1.02985 24.7763 1.55428C24.1927 2.02861 23.6494 2.55193 23.1542 3.11737C22.6158 3.76548 22.102 4.43664 21.6667 5.15834C21.1578 6.05314 20.7617 7.00447 20.3348 7.93962C20.1273 8.45119 19.9026 8.96897 19.5424 9.39388C19.2259 9.75938 18.8679 10.1058 18.4144 10.2933C17.982 10.548 17.4919 10.6868 16.9921 10.7229C16.5993 10.8038 16.1724 10.7209 15.8029 10.9033C15.5633 11.019 15.4749 11.289 15.3973 11.5237C15.3319 11.8263 15.3917 12.1368 15.3765 12.4429C15.292 13.0389 14.8571 13.5658 14.2866 13.7615C14.0437 13.8695 13.7713 13.8158 13.5199 13.889C13.253 13.9557 12.9611 14.0687 12.8201 14.3227C12.7029 14.5127 12.6829 14.7397 12.6566 14.9562C12.6278 15.2493 12.6898 15.5534 12.5952 15.8382C12.4815 16.1432 12.2875 16.4249 12.0093 16.6013C11.6015 16.924 11.103 17.1422 10.583 17.1898C9.62216 17.2632 8.691 16.5718 8.41992 15.6597C8.3153 15.2105 8.29247 14.7421 8.14795 14.3017C7.98681 13.9249 7.72992 13.5736 7.37283 13.361C7.01043 13.1449 6.60126 12.9645 6.16927 12.9986C5.76675 12.9842 5.39681 13.1653 5.05059 13.3479C4.77574 13.5002 4.53769 13.7112 4.32446 13.9402C7.40675 8.93506 12.0413 4.89878 17.4349 2.55814Z" fill="url(#paint0_linear_59_2212)"/>
<path d="M83.5132 35.2528C86.7293 35.2528 89.9453 33.6859 91.5946 31.267C92.0069 30.6349 92.1718 30.0302 92.1718 29.2054V26.869C92.1718 25.7696 91.3747 24.9723 90.2751 24.9723H84.9976C84.0079 24.9723 83.2658 25.6597 83.2658 26.5942C83.2658 27.5011 84.0079 28.1885 84.9976 28.1885H88.4609V29.7553C87.4165 31.1296 85.6847 31.9269 83.6781 31.9269C80.1046 31.9269 77.6308 29.4528 77.6308 25.8521C77.6308 22.3061 80.0222 19.8872 83.4582 19.8872C85.2175 19.8872 86.5644 20.4919 87.8013 21.8114C88.351 22.416 88.7909 22.6359 89.3681 22.6359C90.3026 22.6359 91.0724 21.8663 91.0724 20.9591C91.0724 20.327 90.7426 19.7498 89.9453 19.0075C88.4609 17.4408 85.987 16.4511 83.5132 16.4511C78.043 16.4511 73.8099 20.5468 73.8099 25.8521C73.8099 31.1571 78.043 35.2528 83.5132 35.2528ZM101.435 21.0141C97.422 21.0141 94.371 24.0928 94.371 28.1335C94.371 32.2017 97.532 35.2528 101.82 35.2528C103.414 35.2528 104.899 34.813 106.136 33.9884C106.795 33.5485 107.07 33.1087 107.07 32.504C107.07 31.6518 106.41 31.0196 105.558 31.0196C105.284 31.0196 105.036 31.1021 104.761 31.267C103.937 31.7894 102.92 32.0643 101.93 32.0643C99.9234 32.0643 98.5489 31.0746 98.1092 29.3703H105.861C107.07 29.3703 107.895 28.6282 107.895 27.4737V27.3912C107.895 23.708 105.146 21.0141 101.435 21.0141ZM101.353 24.0104C103.085 24.0104 104.239 25.1372 104.294 26.7591H98.1092C98.5214 25.0823 99.731 24.0104 101.353 24.0104ZM117.296 21.0141C113.2 21.0141 110.011 24.1203 110.011 28.106C110.011 32.0918 113.2 35.2253 117.268 35.2253C121.364 35.2253 124.607 32.0643 124.607 28.106C124.607 24.1478 121.364 21.0141 117.296 21.0141ZM117.296 24.3951C119.302 24.3951 120.814 25.9895 120.814 28.1335C120.814 30.2501 119.302 31.8169 117.296 31.8169C115.261 31.8169 113.777 30.2776 113.777 28.1335C113.777 25.962 115.261 24.3951 117.296 24.3951ZM133.018 21.0141C131.04 21.0141 129.253 21.619 128.098 22.6909C127.603 23.1581 127.329 23.6531 127.329 24.1753C127.329 24.9998 128.016 25.6872 128.923 25.6872C129.28 25.6872 129.583 25.5772 130.022 25.2472C130.819 24.5601 131.672 24.2302 132.634 24.2302C134.283 24.2302 135.19 25.1097 135.19 26.6216V27.2263H131.782C128.593 27.2263 126.641 28.7382 126.641 31.1846C126.641 33.6034 128.538 35.2528 131.342 35.2528C132.963 35.2528 134.338 34.7305 135.328 33.7958C135.492 34.6206 136.207 35.2253 137.114 35.2253C138.131 35.2253 138.901 34.4557 138.901 33.3836V26.8415C138.901 23.1306 136.757 21.0141 133.018 21.0141ZM132.331 32.5315C131.122 32.5315 130.38 31.9544 130.38 31.0471C130.38 30.1401 131.04 29.6729 132.276 29.6729H135.19V29.8378C135.19 31.377 133.953 32.5315 132.331 32.5315ZM149.868 21.0141C148.357 21.0141 147.01 21.5365 146.048 22.416C145.855 21.5915 145.168 21.0141 144.316 21.0141C143.271 21.0141 142.474 21.8114 142.474 22.8833V33.3561C142.474 34.4282 143.271 35.2528 144.343 35.2528C145.388 35.2528 146.185 34.4557 146.185 33.3561V26.9789C146.185 25.4398 147.257 24.3402 148.769 24.3402C150.281 24.3402 151.298 25.4123 151.298 26.9789V33.3561C151.298 34.4282 152.095 35.2528 153.14 35.2528C154.211 35.2528 154.981 34.4557 154.981 33.3561V26.4842C154.981 23.1581 152.975 21.0141 149.868 21.0141ZM164.08 21.0141C162.101 21.0141 160.314 21.619 159.159 22.6909C158.665 23.1581 158.39 23.6531 158.39 24.1753C158.39 24.9998 159.077 25.6872 159.984 25.6872C160.341 25.6872 160.644 25.5772 161.084 25.2472C161.881 24.5601 162.733 24.2302 163.695 24.2302C165.344 24.2302 166.251 25.1097 166.251 26.6216V27.2263H162.843C159.654 27.2263 157.702 28.7382 157.702 31.1846C157.702 33.6034 159.599 35.2528 162.403 35.2528C164.025 35.2528 165.399 34.7305 166.389 33.7958C166.554 34.6206 167.268 35.2253 168.175 35.2253C169.192 35.2253 169.962 34.4557 169.962 33.3836V26.8415C169.962 23.1306 167.818 21.0141 164.08 21.0141ZM163.392 32.5315C162.183 32.5315 161.441 31.9544 161.441 31.0471C161.441 30.1401 162.101 29.6729 163.337 29.6729H166.251V29.8378C166.251 31.377 165.014 32.5315 163.392 32.5315ZM175.405 35.2528C176.449 35.2528 177.246 34.4282 177.246 33.3561V15.874C177.246 14.8018 176.449 13.9773 175.405 13.9773C174.333 13.9773 173.535 14.8018 173.535 15.874V33.3561C173.535 34.4282 174.333 35.2528 175.405 35.2528ZM192.089 21.0141C191.347 21.0141 190.715 21.4266 190.44 22.0587L186.757 30.1126L183.156 22.0587C182.881 21.3991 182.249 21.0141 181.534 21.0141C180.545 21.0141 179.72 21.8388 179.72 22.8008C179.72 23.0757 179.802 23.3507 179.967 23.6805L184.668 34.0434L184.173 35.1428C183.568 36.3799 182.771 36.8746 181.589 36.8746C181.507 36.8746 181.397 36.8471 181.259 36.8471C180.325 36.8471 179.583 37.5342 179.583 38.4414C179.583 39.0736 179.94 39.6508 180.517 39.8981C180.93 40.0905 181.479 40.2005 182.084 40.2005C184.558 40.2005 186.207 38.9362 187.664 35.9399L193.656 23.6531C193.821 23.3507 193.876 23.0757 193.876 22.8008C193.876 21.8388 193.052 21.0141 192.089 21.0141ZM203.717 31.8994C203.579 31.8994 203.414 31.9269 203.194 31.9269C201.463 31.9269 200.748 31.322 200.748 29.8103V24.4501H203.249C204.157 24.4501 204.816 23.7905 204.816 22.8833C204.816 21.9763 204.157 21.3166 203.249 21.3166H200.748V19.4474C200.748 18.3753 199.951 17.5782 198.906 17.5782C197.807 17.5782 197.037 18.3753 197.037 19.4474V21.3166H196.268C195.36 21.3166 194.673 21.9763 194.673 22.8833C194.673 23.7905 195.36 24.4501 196.268 24.4501H197.037V30.1401C197.037 33.466 198.934 35.2528 202.48 35.2528C203.277 35.2528 203.882 35.1153 204.404 34.8954C204.981 34.6206 205.338 34.0984 205.338 33.411C205.338 32.504 204.706 31.8994 203.717 31.8994ZM209.572 14.1147C208.307 14.1147 207.263 15.1044 207.263 16.3687C207.263 17.6057 208.307 18.5952 209.572 18.5952C210.836 18.5952 211.908 17.6057 211.908 16.3687C211.908 15.1044 210.836 14.1147 209.572 14.1147ZM209.572 35.2528C210.643 35.2528 211.441 34.4282 211.441 33.3561V22.8833C211.441 21.8114 210.643 21.0141 209.599 21.0141C208.527 21.0141 207.73 21.8114 207.73 22.8833V33.3561C207.73 34.4282 208.527 35.2528 209.572 35.2528ZM221.639 35.2528C224.057 35.2528 226.037 34.2083 227.164 32.4766C227.384 32.1467 227.466 31.8719 227.466 31.5419C227.466 30.6349 226.724 29.8928 225.817 29.8928C225.322 29.8928 224.937 30.0302 224.552 30.47C223.81 31.2945 222.876 31.8444 221.693 31.8444C219.604 31.8444 218.12 30.305 218.12 28.106C218.12 25.9345 219.604 24.3951 221.693 24.3951C222.903 24.3951 223.865 24.9448 224.552 25.7696C224.882 26.1819 225.294 26.3468 225.817 26.3468C226.724 26.3468 227.466 25.6047 227.466 24.6975C227.466 24.3951 227.384 24.0928 227.136 23.708C226.092 22.1137 223.947 21.0141 221.639 21.0141C217.543 21.0141 214.354 24.1203 214.354 28.106C214.354 32.0918 217.543 35.2528 221.639 35.2528ZM234.695 35.2528C237.664 35.2528 240 33.7134 240 30.9097C240 28.7932 238.626 27.7487 236.18 26.7591L234.86 26.2094C233.871 25.8246 233.431 25.5497 233.431 24.9998C233.431 24.3402 234.008 24.0378 234.888 24.0378C235.795 24.0378 236.647 24.3677 237.361 24.8624C237.691 25.0823 238.021 25.2472 238.351 25.2472C239.176 25.2472 239.863 24.5601 239.863 23.708C239.863 23.2131 239.643 22.7733 239.203 22.4435C238.104 21.509 236.537 20.9866 234.915 20.9866C232.029 20.9866 229.912 22.471 229.912 25.0823C229.912 27.2263 231.314 28.2984 233.623 29.2329L235.08 29.8378C235.905 30.1951 236.482 30.4425 236.482 31.0746C236.482 31.8444 235.685 32.2017 234.75 32.2017C233.568 32.2017 232.579 31.6793 231.782 30.9922C231.397 30.6898 231.067 30.5799 230.709 30.5799C229.857 30.5799 229.17 31.2945 229.17 32.1467C229.17 32.5865 229.335 32.9988 229.692 33.3011C230.902 34.4832 232.661 35.2528 234.695 35.2528Z" fill="white"/>
<path d="M75.1334 50.0782C75.3794 50.0782 75.5696 49.8769 75.5696 49.6198V43.3577H79.5952V49.6198C79.5952 49.8769 79.7852 50.0782 80.0312 50.0782C80.2883 50.0782 80.4674 49.8769 80.4674 49.6198V43.0334C80.4674 42.7763 80.2772 42.5751 80.0088 42.5751H75.1558C74.8873 42.5751 74.6974 42.7763 74.6974 43.0334V49.6198C74.6974 49.8769 74.8763 50.0782 75.1334 50.0782ZM85.242 44.3864C84.3922 44.3864 83.6654 44.7444 83.2405 45.3034V44.8113C83.2405 44.5655 83.0503 44.3753 82.8156 44.3753C82.5583 44.3753 82.3794 44.5655 82.3794 44.8113V51.6548C82.3794 51.9008 82.5583 52.1021 82.8156 52.1021C83.0503 52.1021 83.2405 51.9121 83.2405 51.6548V49.1612C83.6654 49.7204 84.4033 50.0782 85.242 50.0782C86.7852 50.0782 87.9369 48.8593 87.9369 47.2266C87.9369 45.6053 86.7852 44.3864 85.242 44.3864ZM85.119 49.2842C83.9784 49.2842 83.2292 48.4568 83.2292 47.2266C83.2292 46.008 83.9897 45.1804 85.119 45.1804C86.2372 45.1804 87.0536 46.0526 87.0536 47.2379C87.0536 48.412 86.2372 49.2842 85.119 49.2842ZM91.9066 44.3864C90.3077 44.3864 89.0551 45.6276 89.0551 47.2266C89.0551 48.8035 90.3076 50.0558 91.8953 50.0669C93.4946 50.0669 94.758 48.8035 94.758 47.2266C94.758 45.6389 93.4946 44.3864 91.9066 44.3864ZM91.9066 45.1804C93.0249 45.1804 93.8747 46.0639 93.8747 47.2379C93.8747 48.3896 93.0136 49.2732 91.8953 49.2732C90.7773 49.2732 89.9386 48.4009 89.9386 47.2379C89.9273 46.0639 90.7773 45.1804 91.9066 45.1804ZM98.7277 50.0782C99.7117 50.0782 100.483 49.6085 100.942 48.9489C101.009 48.8482 101.02 48.7811 101.02 48.7139C101.02 48.4903 100.841 48.3225 100.618 48.3225C100.528 48.3225 100.427 48.3449 100.316 48.4679C99.9466 48.9265 99.4435 49.2842 98.7388 49.2842C97.6095 49.2842 96.7597 48.4009 96.7597 47.2266C96.7597 46.0639 97.6206 45.1804 98.7388 45.1804C99.4435 45.1804 99.9466 45.5383 100.316 45.9967C100.427 46.1308 100.528 46.1532 100.629 46.1532C100.841 46.1532 101.02 45.9743 101.02 45.762C101.02 45.6948 101.009 45.6276 100.942 45.527C100.495 44.8561 99.7117 44.3864 98.7277 44.3864C97.1398 44.3864 95.8762 45.6389 95.8762 47.2266C95.8762 48.8146 97.1398 50.0782 98.7277 50.0782ZM104.073 50.0782C104.308 50.0782 104.498 49.8769 104.498 49.6309V45.281H106.085C106.309 45.281 106.477 45.1134 106.477 44.8898C106.477 44.6772 106.309 44.5094 106.085 44.5094H102.06C101.836 44.5094 101.657 44.6772 101.657 44.8898C101.657 45.1134 101.836 45.281 102.06 45.281H103.648V49.6309C103.648 49.8769 103.838 50.0782 104.073 50.0782ZM110.48 44.3864C109.63 44.3864 108.903 44.7444 108.478 45.3034V44.8113C108.478 44.5655 108.288 44.3753 108.054 44.3753C107.796 44.3753 107.617 44.5655 107.617 44.8113V51.6548C107.617 51.9008 107.796 52.1021 108.054 52.1021C108.288 52.1021 108.478 51.9121 108.478 51.6548V49.1612C108.903 49.7204 109.641 50.0782 110.48 50.0782C112.023 50.0782 113.175 48.8593 113.175 47.2266C113.175 45.6053 112.023 44.3864 110.48 44.3864ZM110.357 49.2842C109.216 49.2842 108.467 48.4568 108.467 47.2266C108.467 46.008 109.228 45.1804 110.357 45.1804C111.475 45.1804 112.291 46.0526 112.291 47.2379C112.291 48.412 111.475 49.2842 110.357 49.2842ZM116.641 44.3864C115.847 44.3864 115.121 44.6885 114.651 45.2364C114.539 45.3592 114.494 45.4822 114.494 45.6053C114.494 45.7844 114.673 45.9632 114.886 45.9632C114.998 45.9632 115.109 45.9072 115.221 45.7954C115.601 45.3929 116.06 45.1804 116.585 45.1804C117.424 45.1804 117.905 45.6724 117.905 46.5559V47.0254H116.183C114.998 47.0254 114.226 47.6294 114.226 48.5461C114.226 49.4631 114.986 50.0782 116.127 50.0782C116.887 50.0782 117.502 49.7987 117.905 49.3177V49.6309C117.905 49.8769 118.095 50.0782 118.341 50.0782C118.576 50.0782 118.766 49.888 118.766 49.6309V46.6005C118.766 45.214 117.961 44.3864 116.641 44.3864ZM116.239 49.3625C115.557 49.3625 115.109 49.0271 115.109 48.5127C115.109 47.9982 115.512 47.73 116.283 47.73H117.905V47.8641C117.905 48.6915 117.156 49.3625 116.239 49.3625ZM121.025 50.0782C121.271 50.0782 121.45 49.888 121.45 49.642V47.4392H124.133V49.642C124.133 49.888 124.312 50.0782 124.558 50.0782C124.793 50.0782 124.983 49.888 124.983 49.642V44.8226C124.983 44.5766 124.793 44.3864 124.558 44.3864C124.301 44.3864 124.133 44.5766 124.133 44.8226V46.6787H121.45V44.8226C121.45 44.5766 121.26 44.3864 121.025 44.3864C120.767 44.3864 120.589 44.5766 120.589 44.8226V49.642C120.589 49.888 120.767 50.0782 121.025 50.0782ZM129.333 50.0782C130.317 50.0782 131.088 49.6085 131.547 48.9489C131.614 48.8482 131.625 48.7811 131.625 48.7139C131.625 48.4903 131.446 48.3225 131.223 48.3225C131.133 48.3225 131.033 48.3449 130.921 48.4679C130.552 48.9265 130.049 49.2842 129.344 49.2842C128.215 49.2842 127.365 48.4009 127.365 47.2266C127.365 46.0639 128.226 45.1804 129.344 45.1804C130.049 45.1804 130.552 45.5383 130.921 45.9967C131.033 46.1308 131.133 46.1532 131.234 46.1532C131.446 46.1532 131.625 45.9743 131.625 45.762C131.625 45.6948 131.614 45.6276 131.547 45.527C131.1 44.8561 130.317 44.3864 129.333 44.3864C127.745 44.3864 126.481 45.6389 126.481 47.2266C126.481 48.8146 127.745 50.0782 129.333 50.0782ZM134.678 50.0782C134.913 50.0782 135.103 49.8769 135.103 49.6309V45.281H136.691C136.914 45.281 137.082 45.1134 137.082 44.8898C137.082 44.6772 136.914 44.5094 136.691 44.5094H132.665C132.441 44.5094 132.263 44.6772 132.263 44.8898C132.263 45.1134 132.441 45.281 132.665 45.281H134.253V49.6309C134.253 49.8769 134.443 50.0782 134.678 50.0782ZM141.655 47.003C142.025 46.7683 142.226 46.3768 142.226 45.9519C142.226 45.0797 141.544 44.5094 140.47 44.5094H138.67C138.413 44.5094 138.223 44.7107 138.223 44.9567V49.5079C138.223 49.7539 138.413 49.9552 138.67 49.9552H140.75C141.946 49.9552 142.684 49.2618 142.684 48.3114C142.684 47.6628 142.271 47.2156 141.655 47.003ZM139.084 45.281H140.481C141.085 45.281 141.376 45.5383 141.376 45.9967C141.376 46.4551 141.085 46.7348 140.481 46.7348H139.084V45.281ZM140.694 49.1947H139.084V47.4951H140.694C141.409 47.4951 141.823 47.8083 141.823 48.3114C141.823 48.8145 141.432 49.1947 140.694 49.1947ZM146.676 44.3864C145.122 44.3864 143.892 45.6389 143.892 47.2379C143.892 48.8593 145.122 50.0782 146.777 50.0782C147.481 50.0782 148.13 49.8545 148.667 49.4073C148.823 49.2618 148.879 49.1612 148.879 49.0158C148.879 48.7922 148.711 48.6357 148.499 48.6357C148.398 48.6357 148.297 48.6805 148.208 48.7587C147.817 49.0941 147.325 49.2842 146.788 49.2842C145.692 49.2842 144.898 48.5685 144.786 47.4951H148.633C148.968 47.4951 149.159 47.3162 149.159 46.9584V46.9024C149.159 45.4377 148.119 44.3864 146.676 44.3864ZM146.654 45.1693C147.604 45.1693 148.253 45.8178 148.275 46.7348H144.82C145.01 45.8065 145.726 45.1693 146.654 45.1693ZM151.104 50.0782C151.35 50.0782 151.529 49.888 151.529 49.642V47.4392H154.213V49.642C154.213 49.888 154.392 50.0782 154.638 50.0782C154.873 50.0782 155.063 49.888 155.063 49.642V44.8226C155.063 44.5766 154.873 44.3864 154.638 44.3864C154.38 44.3864 154.213 44.5766 154.213 44.8226V46.6787H151.529V44.8226C151.529 44.5766 151.339 44.3864 151.104 44.3864C150.847 44.3864 150.668 44.5766 150.668 44.8226V49.642C150.668 49.888 150.847 50.0782 151.104 50.0782ZM157.389 50.0782C157.635 50.0782 157.813 49.888 157.813 49.642V47.4392H160.497V49.642C160.497 49.888 160.676 50.0782 160.922 50.0782C161.157 50.0782 161.347 49.888 161.347 49.642V44.8226C161.347 44.5766 161.157 44.3864 160.922 44.3864C160.665 44.3864 160.497 44.5766 160.497 44.8226V46.6787H157.813V44.8226C157.813 44.5766 157.623 44.3864 157.389 44.3864C157.131 44.3864 156.952 44.5766 156.952 44.8226V49.642C156.952 49.888 157.131 50.0782 157.389 50.0782ZM163.684 49.9552H165.395C166.636 49.9552 167.43 49.2395 167.43 48.166C167.43 47.1038 166.636 46.3881 165.395 46.3881H164.098V44.8337C164.098 44.5877 163.919 44.3864 163.673 44.3864C163.415 44.3864 163.237 44.5877 163.237 44.8337V49.5079C163.237 49.7539 163.427 49.9552 163.684 49.9552ZM168.638 50.0782C168.884 50.0782 169.085 49.8769 169.085 49.6309V44.8337C169.085 44.5877 168.906 44.3864 168.66 44.3864C168.403 44.3864 168.224 44.5877 168.224 44.8337V49.6309C168.224 49.8769 168.392 50.0782 168.638 50.0782ZM164.098 49.1947V47.1484H165.339C166.111 47.1484 166.547 47.5733 166.547 48.1773C166.547 48.7811 166.122 49.1947 165.35 49.1947H164.098ZM173.357 43.5479C174.374 43.5479 175.056 42.8546 175.056 41.8146V41.6468C175.056 41.4455 174.911 41.278 174.698 41.278C174.486 41.278 174.329 41.4344 174.329 41.6468V41.8146C174.329 42.4968 173.971 42.888 173.357 42.888C172.764 42.888 172.395 42.4968 172.395 41.8146V41.6468C172.395 41.4344 172.249 41.278 172.026 41.278C171.813 41.278 171.668 41.4455 171.668 41.6468V41.8146C171.668 42.8433 172.339 43.5479 173.357 43.5479ZM175.045 44.3864C174.888 44.3864 174.765 44.4649 174.642 44.6437L171.836 48.5798V44.8337C171.836 44.5877 171.646 44.3864 171.411 44.3864C171.154 44.3864 170.975 44.5877 170.975 44.8337V49.6309C170.975 49.8769 171.154 50.0782 171.4 50.0782C171.534 50.0782 171.668 50.011 171.802 49.8322L174.609 45.9856V49.6309C174.609 49.8769 174.788 50.0782 175.034 50.0782C175.28 50.0782 175.47 49.8769 175.47 49.6309V44.8337C175.47 44.5877 175.28 44.3864 175.045 44.3864ZM184.561 44.3864C184.404 44.3864 184.281 44.4649 184.158 44.6437L181.352 48.5798V44.8337C181.352 44.5877 181.162 44.3864 180.927 44.3864C180.669 44.3864 180.491 44.5877 180.491 44.8337V49.6309C180.491 49.8769 180.669 50.0782 180.916 50.0782C181.05 50.0782 181.184 50.011 181.318 49.8322L184.125 45.9856V49.6309C184.125 49.8769 184.304 50.0782 184.55 50.0782C184.796 50.0782 184.986 49.8769 184.986 49.6309V44.8337C184.986 44.5877 184.796 44.3864 184.561 44.3864ZM187.312 50.0782C187.558 50.0782 187.737 49.888 187.737 49.642V47.4392H190.42V49.642C190.42 49.888 190.599 50.0782 190.845 50.0782C191.08 50.0782 191.27 49.888 191.27 49.642V44.8226C191.27 44.5766 191.08 44.3864 190.845 44.3864C190.588 44.3864 190.42 44.5766 190.42 44.8226V46.6787H187.737V44.8226C187.737 44.5766 187.546 44.3864 187.312 44.3864C187.054 44.3864 186.876 44.5766 186.876 44.8226V49.642C186.876 49.888 187.054 50.0782 187.312 50.0782ZM194.804 50.0782C195.038 50.0782 195.228 49.8769 195.228 49.6309V45.281H196.816C197.04 45.281 197.208 45.1134 197.208 44.8898C197.208 44.6772 197.04 44.5094 196.816 44.5094H192.791C192.567 44.5094 192.388 44.6772 192.388 44.8898C192.388 45.1134 192.567 45.281 192.791 45.281H194.379V49.6309C194.379 49.8769 194.569 50.0782 194.804 50.0782ZM200.741 44.3864C199.187 44.3864 197.957 45.6389 197.957 47.2379C197.957 48.8593 199.187 50.0782 200.842 50.0782C201.546 50.0782 202.195 49.8545 202.732 49.4073C202.888 49.2618 202.944 49.1612 202.944 49.0158C202.944 48.7922 202.776 48.6357 202.564 48.6357C202.463 48.6357 202.363 48.6805 202.273 48.7587C201.882 49.0941 201.39 49.2842 200.853 49.2842C199.757 49.2842 198.963 48.5685 198.851 47.4951H202.698C203.033 47.4951 203.224 47.3162 203.224 46.9584V46.9024C203.224 45.4377 202.184 44.3864 200.741 44.3864ZM200.719 45.1693C201.669 45.1693 202.318 45.8178 202.34 46.7348H198.885C199.075 45.8065 199.791 45.1693 200.719 45.1693ZM208.412 44.5094H205.605C205.348 44.5094 205.169 44.7107 205.158 44.9567C205.147 45.281 205.147 45.5942 205.136 45.9295C205.069 47.9089 204.867 49.2508 204.174 49.2508H204.118C203.906 49.2508 203.738 49.4072 203.738 49.6198C203.738 49.8322 203.906 49.9999 204.118 49.9999H204.185C205.494 49.9999 205.863 48.5909 205.952 45.9519C205.963 45.6724 205.974 45.4935 205.974 45.281H208.01V49.6309C208.01 49.8769 208.188 50.0782 208.434 50.0782C208.669 50.0782 208.859 49.8769 208.859 49.6309V44.9567C208.859 44.7107 208.658 44.5094 208.412 44.5094ZM214.428 44.5094H211.621C211.364 44.5094 211.185 44.7107 211.174 44.9567C211.163 45.281 211.163 45.5942 211.152 45.9295C211.085 47.9089 210.883 49.2508 210.19 49.2508H210.134C209.922 49.2508 209.754 49.4072 209.754 49.6198C209.754 49.8322 209.922 49.9999 210.134 49.9999H210.201C211.51 49.9999 211.879 48.5909 211.968 45.9519C211.979 45.6724 211.99 45.4935 211.99 45.281H214.026V49.6309C214.026 49.8769 214.204 50.0782 214.451 50.0782C214.685 50.0782 214.875 49.8769 214.875 49.6309V44.9567C214.875 44.7107 214.674 44.5094 214.428 44.5094ZM219.158 44.3864C217.604 44.3864 216.374 45.6389 216.374 47.2379C216.374 48.8593 217.604 50.0782 219.259 50.0782C219.963 50.0782 220.612 49.8545 221.149 49.4073C221.305 49.2618 221.361 49.1612 221.361 49.0158C221.361 48.7922 221.193 48.6357 220.981 48.6357C220.88 48.6357 220.78 48.6805 220.69 48.7587C220.299 49.0941 219.807 49.2842 219.27 49.2842C218.174 49.2842 217.38 48.5685 217.268 47.4951H221.115C221.451 47.4951 221.641 47.3162 221.641 46.9584V46.9024C221.641 45.4377 220.601 44.3864 219.158 44.3864ZM219.136 45.1693C220.086 45.1693 220.735 45.8178 220.757 46.7348H217.302C217.492 45.8065 218.208 45.1693 219.136 45.1693ZM223.586 44.3864C223.329 44.3864 223.15 44.5877 223.15 44.8337V49.6309C223.15 49.8769 223.329 50.0782 223.586 50.0782C223.832 50.0782 224.011 49.8769 224.011 49.6309V44.8337C224.011 44.5877 223.832 44.3864 223.586 44.3864ZM227.433 49.3625L225.297 47.2379L227.287 45.1134C227.366 45.0349 227.41 44.9232 227.41 44.8002C227.41 44.5766 227.221 44.3864 226.986 44.3864C226.863 44.3864 226.762 44.4312 226.684 44.5094L224.436 46.9248C224.358 47.0143 224.313 47.1149 224.313 47.2266C224.313 47.3386 224.347 47.4503 224.425 47.5398L226.818 49.9552C226.896 50.0334 227.008 50.0782 227.131 50.0782C227.366 50.0782 227.556 49.888 227.556 49.6644C227.556 49.5413 227.511 49.4296 227.433 49.3625ZM230.486 50.0782C230.721 50.0782 230.911 49.8769 230.911 49.6309V45.281H232.499C232.722 45.281 232.89 45.1134 232.89 44.8898C232.89 44.6772 232.722 44.5094 232.499 44.5094H228.473C228.249 44.5094 228.07 44.6772 228.07 44.8898C228.07 45.1134 228.249 45.281 228.473 45.281H230.061V49.6309C230.061 49.8769 230.251 50.0782 230.486 50.0782Z" fill="white"/>
<defs>
<linearGradient id="paint0_linear_59_2212" x1="3.86586" y1="29.0579" x2="79.0843" y2="28.3125" gradientUnits="userSpaceOnUse">
<stop stop-color="#00A0E3"/>
<stop offset="1" stop-color="#B245FF"/>
</linearGradient>
</defs>
</svg>
