<svg width="48" height="48" viewBox="0 0 48 48" fill="none" xmlns="http://www.w3.org/2000/svg">
<path fill-rule="evenodd" clip-rule="evenodd" d="M10.4303 15.3767C10.6571 14.3739 11.5536 13.625 12.625 13.625H35.375C36.4464 13.625 37.3429 14.3739 37.5696 15.3767L24 24.4232L10.4303 15.3767ZM8.37502 15.8572C8.37484 15.8677 8.37483 15.8782 8.37498 15.8887V32.125C8.37498 34.4722 10.2778 36.375 12.625 36.375H35.375C37.7222 36.375 39.625 34.4722 39.625 32.125V15.8887C39.6251 15.8782 39.6251 15.8677 39.6249 15.8572C39.6153 13.5182 37.7162 11.625 35.375 11.625H12.625C10.2837 11.625 8.38463 13.5182 8.37502 15.8572ZM37.625 17.7435V32.125C37.625 33.3676 36.6176 34.375 35.375 34.375H12.625C11.3823 34.375 10.375 33.3676 10.375 32.125V17.7435L23.4453 26.4571C23.7812 26.681 24.2188 26.681 24.5547 26.4571L37.625 17.7435Z" fill="white"/>
</svg>
