<svg width="32" height="26" viewBox="0 0 32 26" fill="none" xmlns="http://www.w3.org/2000/svg">
<path fill-rule="evenodd" clip-rule="evenodd" d="M2.43047 4.37673C2.6572 3.37386 3.5537 2.625 4.62511 2.625H27.3751C28.4465 2.625 29.343 3.37386 29.5697 4.37672L16.0001 13.4232L2.43047 4.37673ZM0.375143 4.85716C0.374965 4.86767 0.374953 4.87818 0.375106 4.88867V21.125C0.375106 23.4722 2.2779 25.375 4.62511 25.375H27.3751C29.7223 25.375 31.6251 23.4722 31.6251 21.125V4.88868C31.6253 4.87818 31.6252 4.86767 31.6251 4.85715C31.6155 2.51815 29.7164 0.625 27.3751 0.625H4.62511C2.28385 0.625 0.384755 2.51816 0.375143 4.85716ZM29.6251 6.74352V21.125C29.6251 22.3676 28.6177 23.375 27.3751 23.375H4.62511C3.38247 23.375 2.37511 22.3676 2.37511 21.125V6.74352L15.4454 15.4571C15.7813 15.681 16.2189 15.681 16.5548 15.4571L29.6251 6.74352Z" fill="white"/>
</svg>
