<svg width="48" height="48" viewBox="0 0 48 48" fill="none" xmlns="http://www.w3.org/2000/svg">
<path d="M37.2872 12.4671C37.0003 12.2369 36.6528 12.0847 36.2818 12.0265C35.9107 11.9683 35.53 12.0064 35.18 12.1367L11.3154 21.0088C10.8968 21.1598 10.5422 21.4368 10.3063 21.7972C10.0704 22.1576 9.96614 22.5815 10.0097 23.0035C10.0485 23.4253 10.2308 23.8239 10.5291 24.1394C10.8274 24.4549 11.2258 24.6704 11.6644 24.7534L17.7275 25.8915V33.0626C17.7273 33.4506 17.8488 33.8299 18.0767 34.1523C18.3046 34.4748 18.6285 34.7259 19.0074 34.8738C19.2581 34.9693 19.5257 35.0191 19.796 35.0206C20.0676 35.0215 20.3368 34.9711 20.5876 34.8724C20.8384 34.7736 21.0659 34.6285 21.2568 34.4455L24.618 31.276L29.6986 35.5101C30.0737 35.8233 30.5559 35.9972 31.056 35.9996C31.2759 36.0039 31.4949 35.9708 31.7024 35.9017C32.0436 35.7996 32.3506 35.6148 32.5932 35.3659C32.8358 35.1169 33.0056 34.8123 33.0857 34.4822L37.9465 14.3883C38.0315 14.0416 38.015 13.6795 37.8988 13.341C37.7826 13.0025 37.5712 12.7003 37.2872 12.4671ZM18.5161 24.0437L12.0781 22.8322L30.1252 16.1138L18.5161 24.0437ZM19.796 33.0626V27.2621L23.0538 29.9788L19.796 33.0626ZM31.0689 34.0416L20.4165 25.1695L35.7617 14.682L31.0689 34.0416Z" fill="white"/>
</svg>
