<svg width="28" height="24" viewBox="0 0 28 24" fill="none" xmlns="http://www.w3.org/2000/svg">
<path d="M27.2872 0.467074C27.0003 0.236922 26.6528 0.0846646 26.2818 0.0264864C25.9107 -0.0316919 25.53 0.00638271 25.18 0.136663L1.31537 9.00879C0.896788 9.15975 0.542234 9.43678 0.306302 9.79721C0.0703704 10.1576 -0.0338573 10.5815 0.00966833 11.0035C0.0485001 11.4253 0.230752 11.8239 0.529094 12.1394C0.827437 12.4549 1.22579 12.6704 1.66442 12.7534L7.72753 13.8915V21.0626C7.72731 21.4506 7.84884 21.8299 8.07671 22.1523C8.30457 22.4748 8.6285 22.7259 9.00737 22.8738C9.25812 22.9693 9.52568 23.0191 9.79596 23.0206C10.0676 23.0215 10.3368 22.9711 10.5876 22.8724C10.8384 22.7736 11.0659 22.6285 11.2568 22.4455L14.618 19.276L19.6986 23.5101C20.0737 23.8233 20.5559 23.9972 21.056 23.9996C21.2759 24.0039 21.4949 23.9708 21.7024 23.9017C22.0436 23.7996 22.3506 23.6148 22.5932 23.3659C22.8358 23.1169 23.0056 22.8123 23.0857 22.4822L27.9465 2.38835C28.0315 2.04162 28.015 1.67953 27.8988 1.34101C27.7826 1.00249 27.5712 0.700347 27.2872 0.467074ZM8.51612 12.0437L2.07811 10.8322L20.1252 4.11382L8.51612 12.0437ZM9.79596 21.0626V15.2621L13.0538 17.9788L9.79596 21.0626ZM21.0689 22.0416L10.4165 13.1695L25.7617 2.68205L21.0689 22.0416Z" fill="white"/>
</svg>
