<svg width="44" height="44" viewBox="0 0 44 44" fill="none" xmlns="http://www.w3.org/2000/svg">
<path d="M22.75 13.975V13.9749L22.7435 13.9751C22.5356 13.9842 22.3492 14.0483 22.1901 14.1699C22.03 14.2924 21.925 14.4546 21.8779 14.6513L19.4544 24.0572C19.2905 24.6933 18.4977 24.9111 18.0319 24.4479L17.1959 23.6166C17.1958 23.6165 17.1958 23.6164 17.1957 23.6164C17.0202 23.441 16.8068 23.35 16.5625 23.35C16.3181 23.35 16.1046 23.4411 15.9291 23.6166L14.9446 24.601C14.7852 24.7604 14.569 24.85 14.3436 24.85H14C13.5306 24.85 13.15 24.4694 13.15 24V14C13.15 13.5306 13.5306 13.15 14 13.15H30C30.4694 13.15 30.85 13.5306 30.85 14V22.5C30.85 22.9694 30.4694 23.35 30 23.35H28.8498C28.4602 23.35 28.1206 23.0852 28.0255 22.7075L27.372 20.1118L27.3721 20.1118L27.3713 20.109C27.3164 19.9076 27.2088 19.742 27.0481 19.6191C26.8884 19.497 26.7038 19.4359 26.5 19.4359H25.4568C25.0651 19.4359 24.7241 19.1683 24.6311 18.7879L23.6227 14.6654C23.5767 14.4556 23.4733 14.2832 23.3099 14.1582C23.1489 14.0351 22.96 13.975 22.75 13.975ZM19.5625 28.15V28.1501L19.569 28.1499C19.7769 28.1408 19.9633 28.0767 20.1224 27.9551C20.2825 27.8326 20.3875 27.6703 20.4347 27.4736L22.2165 20.5434C22.3493 20.0267 23.0835 20.0293 23.2133 20.5459C23.2594 20.7556 23.3627 20.9278 23.5261 21.0527C23.6871 21.1759 23.8759 21.2359 24.0859 21.2359H25.1353C25.5245 21.2359 25.864 21.5003 25.9594 21.8777L26.6118 24.4602C26.6579 24.6697 26.7612 24.8419 26.9245 24.9668C27.0855 25.0899 27.2744 25.15 27.4844 25.15H30C30.4694 25.15 30.85 25.5306 30.85 26V30C30.85 30.4694 30.4694 30.85 30 30.85H14C13.5306 30.85 13.15 30.4694 13.15 30V27.5C13.15 27.0306 13.5306 26.65 14 26.65H15.0625C15.3069 26.65 15.5204 26.5589 15.6959 26.3834L15.9615 26.1179C16.2934 25.7859 16.8316 25.7859 17.1635 26.1179L18.9291 27.8834C19.1046 28.0589 19.3181 28.15 19.5625 28.15ZM32.65 12.5C32.65 11.8649 32.1351 11.35 31.5 11.35H12.5C11.8649 11.35 11.35 11.8649 11.35 12.5V31.5C11.35 32.1351 11.8649 32.65 12.5 32.65H31.5C32.1351 32.65 32.65 32.1351 32.65 31.5V12.5Z" fill="white" stroke="white" stroke-width="0.3"/>
</svg>
