<svg width="44" height="44" viewBox="0 0 44 44" fill="none" xmlns="http://www.w3.org/2000/svg">
<path d="M12.2222 14.6667C12.2222 15.6391 13.2523 16.5718 15.086 17.2594C16.9197 17.947 19.4067 18.3333 21.9999 18.3333C24.5932 18.3333 27.0802 17.947 28.9139 17.2594C30.7476 16.5718 31.7777 15.6391 31.7777 14.6667C31.7777 13.6942 30.7476 12.7616 28.9139 12.0739C27.0802 11.3863 24.5932 11 21.9999 11C19.4067 11 16.9197 11.3863 15.086 12.0739C13.2523 12.7616 12.2222 13.6942 12.2222 14.6667Z" stroke="white" stroke-width="2" stroke-linecap="round" stroke-linejoin="round"/>
<path d="M12.2222 14.6666V22C12.2222 22.9724 13.2523 23.9051 15.086 24.5927C16.9197 25.2803 19.4067 25.6666 21.9999 25.6666C24.5932 25.6666 27.0802 25.2803 28.9139 24.5927C30.7476 23.9051 31.7777 22.9724 31.7777 22V14.6666" stroke="white" stroke-width="2" stroke-linecap="round" stroke-linejoin="round"/>
<path d="M12.2222 22V29.3333C12.2222 30.3058 13.2523 31.2384 15.086 31.9261C16.9197 32.6137 19.4067 33 21.9999 33C24.5932 33 27.0802 32.6137 28.9139 31.9261C30.7476 31.2384 31.7777 30.3058 31.7777 29.3333V22" stroke="white" stroke-width="2" stroke-linecap="round" stroke-linejoin="round"/>
</svg>
