<svg width="45" height="44" viewBox="0 0 45 44" fill="none" xmlns="http://www.w3.org/2000/svg">
<path d="M24.5393 29.0964C24.2697 28.8274 24.1402 28.5022 24.151 28.1211C24.1627 27.7399 24.3034 27.4148 24.573 27.1457L28.382 23.3453L13.3483 23.3453C12.9663 23.3453 12.6458 23.2161 12.387 22.9578C12.129 22.7004 12 22.3812 12 22C12 21.6188 12.129 21.2991 12.387 21.0408C12.6458 20.7834 12.9663 20.6547 13.3483 20.6547L28.382 20.6547L24.5393 16.8206C24.2697 16.5516 24.1348 16.2318 24.1348 15.8614C24.1348 15.4919 24.2697 15.1726 24.5393 14.9036C24.809 14.6345 25.1294 14.5 25.5007 14.5C25.871 14.5 26.191 14.6345 26.4607 14.9036L32.6292 21.0583C32.764 21.1928 32.8598 21.3386 32.9164 21.4955C32.9721 21.6525 33 21.8206 33 22C33 22.1794 32.9721 22.3475 32.9164 22.5045C32.8598 22.6614 32.764 22.8072 32.6292 22.9417L26.427 29.13C26.1798 29.3767 25.871 29.5 25.5007 29.5C25.1294 29.5 24.809 29.3655 24.5393 29.0964Z" fill="url(#paint0_linear_34_6384)"/>
<defs>
<linearGradient id="paint0_linear_34_6384" x1="15.57" y1="27.625" x2="26.0043" y2="13.93" gradientUnits="userSpaceOnUse">
<stop stop-color="#3470FA"/>
<stop offset="1" stop-color="#50EAFD"/>
</linearGradient>
</defs>
</svg>
