<svg width="315" height="76" viewBox="0 0 315 76" fill="none" xmlns="http://www.w3.org/2000/svg">
<path d="M34.1468 33.1029C31.4293 33.0281 30.0038 31.4383 29.1552 29.86C28.7162 29.044 28.5146 28.3444 28.2469 27.7055C27.4458 25.7921 25.5496 24.6904 23.5018 24.6904C20.4989 24.6904 18.0648 27.1245 18.0648 30.1277C18.0648 33.1305 20.4989 35.5646 23.5018 35.5646C24.7382 35.5646 26.1986 35.1891 27.5357 35.4858C31.7787 36.4269 33.386 41.0228 33.0226 44.9403C32.8394 46.9174 32.0664 48.7208 30.407 49.5531C28.8381 50.34 27.5549 49.709 25.9554 50.628C24.6186 51.3963 23.7182 52.8384 23.7182 54.4905C23.7182 56.9502 25.7116 58.9439 28.1713 58.9439C28.9385 58.9439 29.6771 58.7659 30.325 58.438C31.6021 57.7916 32.4341 56.6602 32.5758 55.2213C32.6596 54.3681 32.5659 53.5128 32.9028 52.5446C33.5582 50.6597 35.3718 48.8139 38.7293 48.8241C41.6443 48.8328 44.4586 50.2848 44.8019 54.8426C44.8429 55.3848 44.8531 55.9233 44.8339 56.4554C44.7079 59.1138 43.8611 60.5716 43.0168 62.011C42.0542 63.6521 41.2969 65.1675 41.2774 67.1088C41.2687 68.0004 41.4261 68.9093 41.7679 69.7916C43.2109 73.5122 47.3975 75.3595 51.1183 73.9174C54.4074 72.6426 56.2326 69.2235 55.6176 65.8785C55.2758 64.0108 54.3009 62.661 53.1492 61.2008C52.5071 60.3869 51.8752 59.5606 51.3853 58.3947H51.3897C51.1162 57.6854 50.8983 56.9465 50.7418 56.1834C50.6351 55.6068 50.5559 54.9653 50.5088 54.2438C50.4477 53.2998 50.4823 52.3715 50.6036 51.4688L50.5839 51.4717C50.8192 49.7448 51.3746 48.109 52.1918 46.6326C53.2362 44.7445 54.1683 43.6562 55.8829 42.3296C57.9694 40.7162 60.5359 39.6741 63.3627 39.462C69.755 38.982 70.5591 41.9907 74.6823 42.8288C76.015 43.0994 77.439 42.9979 78.7964 42.4559C82.5021 40.9754 84.3073 36.7696 82.8271 33.0639C81.6297 30.0672 78.6516 28.3138 75.5972 28.5337C72.9889 28.7205 71.545 30.0483 69.6331 31.6338C68.2341 32.7936 66.5954 33.8631 62.963 34.1359C55.2799 34.7128 48.5824 28.9521 48.0052 21.2692C47.7172 17.4355 48.6632 15.7046 49.6503 14.012C50.5876 12.4056 51.3647 10.9335 51.4432 9.03647C51.5861 5.63827 49.3024 2.50683 45.8675 1.70245C41.9823 0.792749 38.0936 3.20562 37.1833 7.09082C36.9675 8.01244 36.9384 8.93378 37.0713 9.81584C37.3608 11.7353 38.322 13.1305 39.504 14.6218C40.7578 16.2035 42.0198 17.812 42.3116 21.6972C42.7518 27.558 40.4887 33.2763 34.1468 33.1029ZM1.23586 28.3222C1.54307 28.3237 1.83835 28.404 2.13043 28.4881C2.63488 28.5817 3.12711 28.7292 3.62516 28.8508C4.21224 29.001 4.81269 29.1205 5.36863 29.3698C5.77068 29.5374 6.15964 29.7344 6.54888 29.929C7.09028 30.1771 7.59037 30.5149 8.16144 30.6944C9.03477 31.008 9.982 30.8689 10.8754 31.0746C11.5655 31.2541 12.2898 31.5584 12.6864 32.1842C12.8577 32.5612 13.0616 32.9385 13.1126 33.3551C13.1399 34.0175 12.9654 34.6634 12.8176 35.3031C12.6381 36.0545 12.652 36.8871 13.0317 37.5772C13.3322 38.1067 13.8474 38.5078 14.4319 38.6772C15.1155 38.8974 15.851 38.8767 16.5538 38.7708C17.001 38.6978 17.4513 38.783 17.8958 38.8363C18.5222 38.9465 19.1188 39.1927 19.6669 39.5121C20.3645 39.947 20.9144 40.5972 21.2684 41.3364C21.7371 42.1431 21.8104 43.1075 21.7403 44.0193C21.5969 45.1832 21.1 46.2683 20.4882 47.2569C20.2973 47.528 20.0917 47.7887 19.9119 48.0688C19.3929 48.8514 19.0563 49.7471 18.8692 50.665C18.6499 51.8255 18.9393 52.9929 19.1791 54.1252C19.2882 54.6299 19.4982 55.1041 19.7335 55.5605C20.1068 56.4039 20.5935 57.1911 21.0854 57.969C21.8831 59.1025 22.7128 60.2234 23.7037 61.1976C24.1249 61.6326 24.5948 62.0145 25.0486 62.4137C25.7526 63.0627 26.4482 63.7254 27.0556 64.4676C27.442 64.9473 27.8656 65.4034 28.1716 65.9425C28.3543 66.2692 28.5614 66.5866 28.679 66.9453C28.857 67.4605 29.0525 67.9743 29.1415 68.5148C29.2567 69.1871 29.3038 69.8731 29.2678 70.5544C29.2204 71.0557 29.2311 71.5598 29.1825 72.0608C29.1721 73.1596 29.6826 74.2587 30.5484 74.9403C30.8475 75.1742 31.1654 75.3932 31.5227 75.5294C27.0324 74.7657 22.6916 73.1491 18.7706 70.8331C12.364 67.066 7.10832 61.3789 3.85528 54.6965C1.8977 50.6976 0.669736 46.3484 0.203396 41.922C-0.271381 37.3756 0.0899381 32.748 1.23586 28.3222ZM22.8833 3.05987C26.7746 1.3548 30.9568 0.322336 35.1923 0C34.2361 0.471286 33.3328 1.05399 32.5188 1.7423C31.7528 2.36487 31.0398 3.05172 30.3898 3.79385C29.6832 4.64449 29.0089 5.52539 28.4375 6.47262C27.7696 7.64705 27.2497 8.89567 26.6894 10.123C26.4171 10.7945 26.1221 11.4741 25.6493 12.0318C25.2339 12.5115 24.7641 12.9662 24.1689 13.2123C23.6013 13.5466 22.9581 13.7287 22.3021 13.7761C21.7865 13.8823 21.2262 13.7735 20.7413 14.0129C20.4268 14.1648 20.3107 14.5191 20.2089 14.8272C20.1231 15.2243 20.2016 15.6319 20.1816 16.0336C20.0707 16.8159 19.4999 17.5074 18.7511 17.7643C18.4323 17.906 18.0747 17.8356 17.7448 17.9316C17.3946 18.0191 17.0114 18.1675 16.8264 18.5009C16.6725 18.7502 16.6463 19.0481 16.6117 19.3323C16.5739 19.7169 16.6553 20.1161 16.5311 20.4899C16.3819 20.8902 16.1273 21.2599 15.7622 21.4915C15.2269 21.9151 14.5727 22.2013 13.8902 22.2639C12.6291 22.3602 11.4069 21.4528 11.0511 20.2557C10.9138 19.666 10.8838 19.0513 10.6942 18.4732C10.4827 17.9787 10.1455 17.5176 9.67683 17.2386C9.20118 16.9549 8.66414 16.7181 8.09715 16.7629C7.56884 16.744 7.0833 16.9817 6.62889 17.2214C6.26815 17.4213 5.9557 17.6982 5.67584 17.9988C9.72134 11.4296 15.8041 6.13195 22.8833 3.05987Z" fill="url(#paint0_linear_59_1327)"/>
<path d="M109.611 45.9717C113.832 45.9717 118.053 43.9152 120.218 40.7404C120.759 39.9107 120.976 39.1171 120.976 38.0346V34.9681C120.976 33.5251 119.929 32.4787 118.486 32.4787H111.559C110.261 32.4787 109.287 33.3808 109.287 34.6073C109.287 35.7978 110.261 36.6999 111.559 36.6999H116.105V38.7564C114.734 40.5601 112.461 41.6065 109.828 41.6065C105.137 41.6065 101.891 38.3593 101.891 33.6333C101.891 28.9792 105.029 25.8045 109.539 25.8045C111.848 25.8045 113.616 26.5981 115.239 28.3299C115.961 29.1235 116.538 29.4121 117.296 29.4121C118.522 29.4121 119.533 28.4021 119.533 27.2113C119.533 26.3816 119.1 25.6241 118.053 24.6498C116.105 22.5936 112.858 21.2947 109.611 21.2947C102.432 21.2947 96.8757 26.6702 96.8757 33.6333C96.8757 40.5961 102.432 45.9717 109.611 45.9717ZM133.134 27.2835C127.867 27.2835 123.862 31.3243 123.862 36.6277C123.862 41.9672 128.011 45.9717 133.639 45.9717C135.732 45.9717 137.679 45.3945 139.303 44.3123C140.169 43.7348 140.53 43.1577 140.53 42.364C140.53 41.2455 139.664 40.4158 138.546 40.4158C138.185 40.4158 137.86 40.524 137.499 40.7404C136.417 41.4261 135.082 41.7869 133.783 41.7869C131.15 41.7869 129.346 40.4879 128.768 38.2511H138.942C140.53 38.2511 141.612 37.2771 141.612 35.7617V35.6535C141.612 30.8193 138.004 27.2835 133.134 27.2835ZM133.026 31.2161C135.299 31.2161 136.814 32.6951 136.886 34.8238H128.768C129.31 32.623 130.897 31.2161 133.026 31.2161ZM153.95 27.2835C148.575 27.2835 144.39 31.3604 144.39 36.5917C144.39 41.8229 148.575 45.9356 153.914 45.9356C159.29 45.9356 163.547 41.7869 163.547 36.5917C163.547 31.3965 159.29 27.2835 153.95 27.2835ZM153.95 31.7211C156.584 31.7211 158.569 33.8137 158.569 36.6277C158.569 39.4057 156.584 41.4622 153.95 41.4622C151.281 41.4622 149.332 39.4418 149.332 36.6277C149.332 33.7776 151.281 31.7211 153.95 31.7211ZM174.587 27.2835C171.989 27.2835 169.644 28.0774 168.129 29.4843C167.48 30.0975 167.119 30.7471 167.119 31.4325C167.119 32.5148 168.021 33.4169 169.211 33.4169C169.68 33.4169 170.077 33.2726 170.654 32.8394C171.701 31.9376 172.819 31.5047 174.082 31.5047C176.246 31.5047 177.437 32.659 177.437 34.6434V35.437H172.963C168.778 35.437 166.217 37.4214 166.217 40.6322C166.217 43.807 168.706 45.9717 172.386 45.9717C174.515 45.9717 176.319 45.2863 177.617 44.0595C177.834 45.142 178.772 45.9356 179.962 45.9356C181.297 45.9356 182.307 44.9256 182.307 43.5184V34.932C182.307 30.0614 179.493 27.2835 174.587 27.2835ZM173.685 42.4001C172.098 42.4001 171.123 41.6426 171.123 40.4518C171.123 39.2614 171.989 38.6482 173.613 38.6482H177.437V38.8646C177.437 40.8847 175.814 42.4001 173.685 42.4001ZM196.702 27.2835C194.718 27.2835 192.95 27.9692 191.688 29.1235C191.435 28.0413 190.533 27.2835 189.415 27.2835C188.044 27.2835 186.998 28.3299 186.998 29.7368V43.4823C186.998 44.8895 188.044 45.9717 189.451 45.9717C190.822 45.9717 191.868 44.9256 191.868 43.4823V35.1124C191.868 33.0922 193.275 31.649 195.259 31.649C197.244 31.649 198.578 33.0561 198.578 35.1124V43.4823C198.578 44.8895 199.624 45.9717 200.996 45.9717C202.402 45.9717 203.413 44.9256 203.413 43.4823V34.463C203.413 30.0975 200.779 27.2835 196.702 27.2835ZM215.354 27.2835C212.757 27.2835 210.412 28.0774 208.897 29.4843C208.247 30.0975 207.887 30.7471 207.887 31.4325C207.887 32.5148 208.788 33.4169 209.979 33.4169C210.448 33.4169 210.845 33.2726 211.422 32.8394C212.468 31.9376 213.587 31.5047 214.849 31.5047C217.014 31.5047 218.205 32.659 218.205 34.6434V35.437H213.731C209.546 35.437 206.984 37.4214 206.984 40.6322C206.984 43.807 209.474 45.9717 213.154 45.9717C215.282 45.9717 217.086 45.2863 218.385 44.0595C218.602 45.142 219.54 45.9356 220.73 45.9356C222.065 45.9356 223.075 44.9256 223.075 43.5184V34.932C223.075 30.0614 220.261 27.2835 215.354 27.2835ZM214.453 42.4001C212.865 42.4001 211.891 41.6426 211.891 40.4518C211.891 39.2614 212.757 38.6482 214.38 38.6482H218.205V38.8646C218.205 40.8847 216.581 42.4001 214.453 42.4001ZM230.219 45.9717C231.589 45.9717 232.636 44.8895 232.636 43.4823V20.5371C232.636 19.1299 231.589 18.0477 230.219 18.0477C228.811 18.0477 227.765 19.1299 227.765 20.5371V43.4823C227.765 44.8895 228.811 45.9717 230.219 45.9717ZM252.117 27.2835C251.143 27.2835 250.313 27.8249 249.953 28.6546L245.118 39.2253L240.392 28.6546C240.031 27.7888 239.201 27.2835 238.264 27.2835C236.965 27.2835 235.882 28.366 235.882 29.6286C235.882 29.9893 235.991 30.3503 236.207 30.7832L242.377 44.3845L241.727 45.8274C240.933 47.451 239.887 48.1004 238.336 48.1004C238.227 48.1004 238.083 48.0643 237.903 48.0643C236.676 48.0643 235.702 48.9661 235.702 50.1568C235.702 50.9865 236.171 51.7441 236.929 52.0688C237.47 52.3213 238.191 52.4656 238.985 52.4656C242.232 52.4656 244.397 50.8062 246.309 46.8736L254.174 30.7471C254.39 30.3503 254.462 29.9893 254.462 29.6286C254.462 28.366 253.38 27.2835 252.117 27.2835ZM267.378 41.5704C267.198 41.5704 266.981 41.6065 266.693 41.6065C264.42 41.6065 263.482 40.8126 263.482 38.8285V31.7933H266.765C267.955 31.7933 268.821 30.9275 268.821 29.7368C268.821 28.5464 267.955 27.6806 266.765 27.6806H263.482V25.2273C263.482 23.8201 262.436 22.774 261.064 22.774C259.622 22.774 258.611 23.8201 258.611 25.2273V27.6806H257.601C256.41 27.6806 255.509 28.5464 255.509 29.7368C255.509 30.9275 256.41 31.7933 257.601 31.7933H258.611V39.2614C258.611 43.6266 261.101 45.9717 265.755 45.9717C266.801 45.9717 267.594 45.7913 268.28 45.5028C269.038 45.142 269.507 44.4566 269.507 43.5545C269.507 42.364 268.677 41.5704 267.378 41.5704ZM275.063 18.2281C273.403 18.2281 272.032 19.527 272.032 21.1864C272.032 22.81 273.403 24.1087 275.063 24.1087C276.722 24.1087 278.129 22.81 278.129 21.1864C278.129 19.527 276.722 18.2281 275.063 18.2281ZM275.063 45.9717C276.469 45.9717 277.516 44.8895 277.516 43.4823V29.7368C277.516 28.3299 276.469 27.2835 275.099 27.2835C273.691 27.2835 272.645 28.3299 272.645 29.7368V43.4823C272.645 44.8895 273.691 45.9717 275.063 45.9717ZM290.9 45.9717C294.075 45.9717 296.673 44.6009 298.152 42.328C298.441 41.8951 298.549 41.5344 298.549 41.1012C298.549 39.9107 297.575 38.9368 296.384 38.9368C295.735 38.9368 295.23 39.1171 294.724 39.6943C293.75 40.7765 292.524 41.4983 290.973 41.4983C288.231 41.4983 286.282 39.4779 286.282 36.5917C286.282 33.7416 288.231 31.7211 290.973 31.7211C292.56 31.7211 293.823 32.4426 294.724 33.5251C295.157 34.0662 295.699 34.2827 296.384 34.2827C297.575 34.2827 298.549 33.3087 298.549 32.1179C298.549 31.7211 298.441 31.3243 298.116 30.8193C296.745 28.7267 293.931 27.2835 290.9 27.2835C285.525 27.2835 281.34 31.3604 281.34 36.5917C281.34 41.8229 285.525 45.9717 290.9 45.9717ZM308.037 45.9717C311.933 45.9717 315 43.9513 315 40.2715C315 37.4935 313.196 36.1227 309.985 34.8238L308.254 34.1023C306.955 33.5973 306.377 33.2365 306.377 32.5148C306.377 31.649 307.135 31.2522 308.29 31.2522C309.48 31.2522 310.599 31.6851 311.537 32.3344C311.969 32.623 312.403 32.8394 312.836 32.8394C313.918 32.8394 314.82 31.9376 314.82 30.8193C314.82 30.1697 314.531 29.5925 313.954 29.1596C312.511 27.9331 310.454 27.2474 308.326 27.2474C304.538 27.2474 301.76 29.1957 301.76 32.623C301.76 35.437 303.599 36.8442 306.63 38.0707L308.542 38.8646C309.625 39.3336 310.382 39.6582 310.382 40.4879C310.382 41.4983 309.336 41.9672 308.109 41.9672C306.558 41.9672 305.259 41.2815 304.213 40.3797C303.708 39.9829 303.275 39.8386 302.806 39.8386C301.688 39.8386 300.785 40.7765 300.785 41.8951C300.785 42.4723 301.002 43.0134 301.471 43.4102C303.058 44.9616 305.367 45.9717 308.037 45.9717Z" fill="#F5F5F5"/>
<path d="M98.6118 65.4299C98.9347 65.4299 99.1843 65.1658 99.1843 64.8283V56.6093H104.468V64.8283C104.468 65.1658 104.717 65.4299 105.04 65.4299C105.378 65.4299 105.613 65.1658 105.613 64.8283V56.1837C105.613 55.8462 105.363 55.5821 105.011 55.5821H98.6412C98.2889 55.5821 98.0396 55.8462 98.0396 56.1837V64.8283C98.0396 65.1658 98.2743 65.4299 98.6118 65.4299ZM111.879 57.9595C110.764 57.9595 109.81 58.4293 109.252 59.163V58.5171C109.252 58.1945 109.003 57.9449 108.695 57.9449C108.357 57.9449 108.122 58.1945 108.122 58.5171V67.4992C108.122 67.8221 108.357 68.0863 108.695 68.0863C109.003 68.0863 109.252 67.837 109.252 67.4992V64.2264C109.81 64.9604 110.779 65.4299 111.879 65.4299C113.905 65.4299 115.416 63.8302 115.416 61.6873C115.416 59.5592 113.905 57.9595 111.879 57.9595ZM111.718 64.3879C110.221 64.3879 109.238 63.3019 109.238 61.6873C109.238 60.0878 110.236 59.0015 111.718 59.0015C113.186 59.0015 114.257 60.1463 114.257 61.7021C114.257 63.2431 113.186 64.3879 111.718 64.3879ZM120.627 57.9595C118.528 57.9595 116.884 59.5886 116.884 61.6873C116.884 63.7569 118.528 65.4005 120.612 65.4151C122.711 65.4151 124.369 63.7569 124.369 61.6873C124.369 59.6034 122.711 57.9595 120.627 57.9595ZM120.627 59.0015C122.094 59.0015 123.21 60.1611 123.21 61.7021C123.21 63.2137 122.079 64.3733 120.612 64.3733C119.144 64.3733 118.044 63.2286 118.044 61.7021C118.029 60.1611 119.144 59.0015 120.627 59.0015ZM129.579 65.4299C130.871 65.4299 131.883 64.8135 132.485 63.9477C132.573 63.8156 132.588 63.7275 132.588 63.6393C132.588 63.3458 132.353 63.1256 132.06 63.1256C131.942 63.1256 131.81 63.1549 131.663 63.3164C131.179 63.9183 130.519 64.3879 129.594 64.3879C128.112 64.3879 126.996 63.2286 126.996 61.6873C126.996 60.1611 128.126 59.0015 129.594 59.0015C130.519 59.0015 131.179 59.4714 131.663 60.073C131.81 60.249 131.942 60.2784 132.074 60.2784C132.353 60.2784 132.588 60.0436 132.588 59.7649C132.588 59.6767 132.573 59.5886 132.485 59.4565C131.898 58.5759 130.871 57.9595 129.579 57.9595C127.495 57.9595 125.837 59.6034 125.837 61.6873C125.837 63.7714 127.495 65.4299 129.579 65.4299ZM136.595 65.4299C136.903 65.4299 137.152 65.1658 137.152 64.8429V59.1336H139.236C139.53 59.1336 139.75 58.9137 139.75 58.6201C139.75 58.3411 139.53 58.1209 139.236 58.1209H133.953C133.659 58.1209 133.424 58.3411 133.424 58.6201C133.424 58.9137 133.659 59.1336 133.953 59.1336H136.037V64.8429C136.037 65.1658 136.286 65.4299 136.595 65.4299ZM145.004 57.9595C143.889 57.9595 142.935 58.4293 142.377 59.163V58.5171C142.377 58.1945 142.127 57.9449 141.819 57.9449C141.482 57.9449 141.247 58.1945 141.247 58.5171V67.4992C141.247 67.8221 141.482 68.0863 141.819 68.0863C142.127 68.0863 142.377 67.837 142.377 67.4992V64.2264C142.935 64.9604 143.903 65.4299 145.004 65.4299C147.029 65.4299 148.541 63.8302 148.541 61.6873C148.541 59.5592 147.029 57.9595 145.004 57.9595ZM144.843 64.3879C143.346 64.3879 142.362 63.3019 142.362 61.6873C142.362 60.0878 143.36 59.0015 144.843 59.0015C146.31 59.0015 147.382 60.1463 147.382 61.7021C147.382 63.2431 146.31 64.3879 144.843 64.3879ZM153.091 57.9595C152.049 57.9595 151.095 58.356 150.479 59.0751C150.332 59.2363 150.273 59.3978 150.273 59.5592C150.273 59.7943 150.508 60.029 150.787 60.029C150.934 60.029 151.08 59.9554 151.227 59.8088C151.726 59.2805 152.328 59.0015 153.017 59.0015C154.118 59.0015 154.749 59.6474 154.749 60.807V61.4231H152.489C150.934 61.4231 149.921 62.2159 149.921 63.4191C149.921 64.6226 150.919 65.4299 152.416 65.4299C153.414 65.4299 154.221 65.0631 154.749 64.4318V64.8429C154.749 65.1658 154.999 65.4299 155.322 65.4299C155.63 65.4299 155.879 65.1803 155.879 64.8429V60.8654C155.879 59.0457 154.823 57.9595 153.091 57.9595ZM152.563 64.4906C151.667 64.4906 151.08 64.0504 151.08 63.3752C151.08 62.7 151.608 62.3479 152.621 62.3479H154.749V62.524C154.749 63.6099 153.766 64.4906 152.563 64.4906ZM158.844 65.4299C159.167 65.4299 159.402 65.1803 159.402 64.8574V61.9663H162.924V64.8574C162.924 65.1803 163.159 65.4299 163.482 65.4299C163.79 65.4299 164.04 65.1803 164.04 64.8574V58.532C164.04 58.2091 163.79 57.9595 163.482 57.9595C163.144 57.9595 162.924 58.2091 162.924 58.532V60.9681H159.402V58.532C159.402 58.2091 159.152 57.9595 158.844 57.9595C158.506 57.9595 158.272 58.2091 158.272 58.532V64.8574C158.272 65.1803 158.506 65.4299 158.844 65.4299ZM169.749 65.4299C171.04 65.4299 172.053 64.8135 172.655 63.9477C172.743 63.8156 172.757 63.7275 172.757 63.6393C172.757 63.3458 172.523 63.1256 172.229 63.1256C172.111 63.1256 171.979 63.1549 171.833 63.3164C171.348 63.9183 170.688 64.3879 169.763 64.3879C168.281 64.3879 167.166 63.2286 167.166 61.6873C167.166 60.1611 168.295 59.0015 169.763 59.0015C170.688 59.0015 171.348 59.4714 171.833 60.073C171.979 60.249 172.111 60.2784 172.244 60.2784C172.523 60.2784 172.757 60.0436 172.757 59.7649C172.757 59.6767 172.743 59.5886 172.655 59.4565C172.068 58.5759 171.04 57.9595 169.749 57.9595C167.664 57.9595 166.006 59.6034 166.006 61.6873C166.006 63.7714 167.664 65.4299 169.749 65.4299ZM176.764 65.4299C177.072 65.4299 177.321 65.1658 177.321 64.8429V59.1336H179.406C179.699 59.1336 179.919 58.9137 179.919 58.6201C179.919 58.3411 179.699 58.1209 179.406 58.1209H174.122C173.828 58.1209 173.594 58.3411 173.594 58.6201C173.594 58.9137 173.828 59.1336 174.122 59.1336H176.206V64.8429C176.206 65.1658 176.456 65.4299 176.764 65.4299ZM185.922 61.3937C186.406 61.0857 186.67 60.5719 186.67 60.0142C186.67 58.8694 185.775 58.1209 184.366 58.1209H182.003C181.666 58.1209 181.416 58.3851 181.416 58.708V64.6814C181.416 65.0043 181.666 65.2685 182.003 65.2685H184.733C186.304 65.2685 187.272 64.3585 187.272 63.111C187.272 62.2598 186.729 61.6727 185.922 61.3937ZM182.546 59.1336H184.381C185.173 59.1336 185.555 59.4714 185.555 60.073C185.555 60.6746 185.173 61.0417 184.381 61.0417H182.546V59.1336ZM184.66 64.2703H182.546V62.0396H184.66C185.599 62.0396 186.142 62.4506 186.142 63.111C186.142 63.7714 185.628 64.2703 184.66 64.2703ZM192.511 57.9595C190.472 57.9595 188.857 59.6034 188.857 61.7021C188.857 63.8302 190.472 65.4299 192.644 65.4299C193.568 65.4299 194.42 65.1364 195.124 64.5493C195.329 64.3585 195.403 64.2264 195.403 64.0356C195.403 63.742 195.183 63.5366 194.904 63.5366C194.772 63.5366 194.639 63.5954 194.522 63.6981C194.008 64.1383 193.363 64.3879 192.658 64.3879C191.22 64.3879 190.178 63.4485 190.031 62.0396H195.08C195.52 62.0396 195.77 61.8048 195.77 61.3353V61.2617C195.77 59.3393 194.405 57.9595 192.511 57.9595ZM192.482 58.987C193.73 58.987 194.581 59.8382 194.61 61.0417H190.075C190.325 59.8234 191.264 58.987 192.482 58.987ZM198.323 65.4299C198.646 65.4299 198.881 65.1803 198.881 64.8574V61.9663H202.403V64.8574C202.403 65.1803 202.638 65.4299 202.961 65.4299C203.269 65.4299 203.519 65.1803 203.519 64.8574V58.532C203.519 58.2091 203.269 57.9595 202.961 57.9595C202.623 57.9595 202.403 58.2091 202.403 58.532V60.9681H198.881V58.532C198.881 58.2091 198.631 57.9595 198.323 57.9595C197.986 57.9595 197.751 58.2091 197.751 58.532V64.8574C197.751 65.1803 197.986 65.4299 198.323 65.4299ZM206.571 65.4299C206.894 65.4299 207.129 65.1803 207.129 64.8574V61.9663H210.651V64.8574C210.651 65.1803 210.886 65.4299 211.209 65.4299C211.517 65.4299 211.767 65.1803 211.767 64.8574V58.532C211.767 58.2091 211.517 57.9595 211.209 57.9595C210.872 57.9595 210.651 58.2091 210.651 58.532V60.9681H207.129V58.532C207.129 58.2091 206.88 57.9595 206.571 57.9595C206.234 57.9595 205.999 58.2091 205.999 58.532V64.8574C205.999 65.1803 206.234 65.4299 206.571 65.4299ZM214.834 65.2685H217.08C218.709 65.2685 219.751 64.3291 219.751 62.9202C219.751 61.5261 218.709 60.5867 217.08 60.5867H215.377V58.5465C215.377 58.2236 215.142 57.9595 214.82 57.9595C214.482 57.9595 214.247 58.2236 214.247 58.5465V64.6814C214.247 65.0043 214.497 65.2685 214.834 65.2685ZM221.336 65.4299C221.659 65.4299 221.923 65.1658 221.923 64.8429V58.5465C221.923 58.2236 221.688 57.9595 221.365 57.9595C221.028 57.9595 220.793 58.2236 220.793 58.5465V64.8429C220.793 65.1658 221.013 65.4299 221.336 65.4299ZM215.377 64.2703V61.5846H217.006C218.019 61.5846 218.591 62.1423 218.591 62.935C218.591 63.7275 218.034 64.2703 217.021 64.2703H215.377ZM227.529 56.8589C228.865 56.8589 229.76 55.9489 229.76 54.5839V54.3637C229.76 54.0996 229.569 53.8796 229.291 53.8796C229.012 53.8796 228.806 54.085 228.806 54.3637V54.5839C228.806 55.4794 228.336 55.9929 227.529 55.9929C226.752 55.9929 226.267 55.4794 226.267 54.5839V54.3637C226.267 54.085 226.076 53.8796 225.783 53.8796C225.504 53.8796 225.313 54.0996 225.313 54.3637V54.5839C225.313 55.9341 226.194 56.8589 227.529 56.8589ZM229.746 57.9595C229.54 57.9595 229.379 58.0624 229.217 58.2972L225.533 63.4633V58.5465C225.533 58.2236 225.284 57.9595 224.976 57.9595C224.638 57.9595 224.403 58.2236 224.403 58.5465V64.8429C224.403 65.1658 224.638 65.4299 224.961 65.4299C225.137 65.4299 225.313 65.3418 225.489 65.107L229.173 60.0584V64.8429C229.173 65.1658 229.408 65.4299 229.731 65.4299C230.054 65.4299 230.303 65.1658 230.303 64.8429V58.5465C230.303 58.2236 230.054 57.9595 229.746 57.9595ZM242.235 57.9595C242.03 57.9595 241.868 58.0624 241.707 58.2972L238.023 63.4633V58.5465C238.023 58.2236 237.773 57.9595 237.465 57.9595C237.128 57.9595 236.893 58.2236 236.893 58.5465V64.8429C236.893 65.1658 237.128 65.4299 237.451 65.4299C237.627 65.4299 237.803 65.3418 237.979 65.107L241.663 60.0584V64.8429C241.663 65.1658 241.898 65.4299 242.22 65.4299C242.543 65.4299 242.793 65.1658 242.793 64.8429V58.5465C242.793 58.2236 242.543 57.9595 242.235 57.9595ZM245.846 65.4299C246.168 65.4299 246.403 65.1803 246.403 64.8574V61.9663H249.925V64.8574C249.925 65.1803 250.16 65.4299 250.483 65.4299C250.791 65.4299 251.041 65.1803 251.041 64.8574V58.532C251.041 58.2091 250.791 57.9595 250.483 57.9595C250.146 57.9595 249.925 58.2091 249.925 58.532V60.9681H246.403V58.532C246.403 58.2091 246.154 57.9595 245.846 57.9595C245.508 57.9595 245.273 58.2091 245.273 58.532V64.8574C245.273 65.1803 245.508 65.4299 245.846 65.4299ZM255.679 65.4299C255.987 65.4299 256.236 65.1658 256.236 64.8429V59.1336H258.32C258.614 59.1336 258.834 58.9137 258.834 58.6201C258.834 58.3411 258.614 58.1209 258.32 58.1209H253.037C252.743 58.1209 252.508 58.3411 252.508 58.6201C252.508 58.9137 252.743 59.1336 253.037 59.1336H255.121V64.8429C255.121 65.1658 255.37 65.4299 255.679 65.4299ZM263.472 57.9595C261.432 57.9595 259.817 59.6034 259.817 61.7021C259.817 63.8302 261.432 65.4299 263.604 65.4299C264.529 65.4299 265.38 65.1364 266.084 64.5493C266.289 64.3585 266.363 64.2264 266.363 64.0356C266.363 63.742 266.143 63.5366 265.864 63.5366C265.732 63.5366 265.6 63.5954 265.482 63.6981C264.969 64.1383 264.323 64.3879 263.619 64.3879C262.18 64.3879 261.138 63.4485 260.991 62.0396H266.04C266.48 62.0396 266.73 61.8048 266.73 61.3353V61.2617C266.73 59.3393 265.365 57.9595 263.472 57.9595ZM263.442 58.987C264.69 58.987 265.541 59.8382 265.57 61.0417H261.036C261.285 59.8234 262.224 58.987 263.442 58.987ZM273.54 58.1209H269.856C269.518 58.1209 269.284 58.3851 269.269 58.708C269.254 59.1336 269.254 59.5447 269.239 59.9848C269.152 62.5827 268.887 64.3439 267.977 64.3439H267.904C267.625 64.3439 267.405 64.5493 267.405 64.8283C267.405 65.107 267.625 65.3272 267.904 65.3272H267.992C269.709 65.3272 270.194 63.4779 270.311 60.0142C270.326 59.6474 270.34 59.4126 270.34 59.1336H273.011V64.8429C273.011 65.1658 273.246 65.4299 273.569 65.4299C273.877 65.4299 274.127 65.1658 274.127 64.8429V58.708C274.127 58.3851 273.863 58.1209 273.54 58.1209ZM281.436 58.1209H277.752C277.414 58.1209 277.18 58.3851 277.165 58.708C277.15 59.1336 277.15 59.5447 277.135 59.9848C277.048 62.5827 276.783 64.3439 275.873 64.3439H275.8C275.521 64.3439 275.301 64.5493 275.301 64.8283C275.301 65.107 275.521 65.3272 275.8 65.3272H275.888C277.605 65.3272 278.09 63.4779 278.207 60.0142C278.222 59.6474 278.236 59.4126 278.236 59.1336H280.907V64.8429C280.907 65.1658 281.142 65.4299 281.465 65.4299C281.773 65.4299 282.023 65.1658 282.023 64.8429V58.708C282.023 58.3851 281.759 58.1209 281.436 58.1209ZM287.644 57.9595C285.604 57.9595 283.989 59.6034 283.989 61.7021C283.989 63.8302 285.604 65.4299 287.776 65.4299C288.701 65.4299 289.552 65.1364 290.256 64.5493C290.462 64.3585 290.535 64.2264 290.535 64.0356C290.535 63.742 290.315 63.5366 290.036 63.5366C289.904 63.5366 289.772 63.5954 289.655 63.6981C289.141 64.1383 288.495 64.3879 287.791 64.3879C286.353 64.3879 285.311 63.4485 285.164 62.0396H290.212C290.653 62.0396 290.902 61.8048 290.902 61.3353V61.2617C290.902 59.3393 289.537 57.9595 287.644 57.9595ZM287.615 58.987C288.862 58.987 289.714 59.8382 289.743 61.0417H285.208C285.457 59.8234 286.397 58.987 287.615 58.987ZM293.456 57.9595C293.118 57.9595 292.883 58.2236 292.883 58.5465V64.8429C292.883 65.1658 293.118 65.4299 293.456 65.4299C293.779 65.4299 294.014 65.1658 294.014 64.8429V58.5465C294.014 58.2236 293.779 57.9595 293.456 57.9595ZM298.504 64.4906L295.701 61.7021L298.314 58.9137C298.416 58.8107 298.475 58.6641 298.475 58.5026C298.475 58.2091 298.226 57.9595 297.917 57.9595C297.756 57.9595 297.624 58.0182 297.521 58.1209L294.571 61.291C294.469 61.4086 294.41 61.5406 294.41 61.6873C294.41 61.8342 294.454 61.9808 294.556 62.0983L297.697 65.2685C297.8 65.3712 297.947 65.4299 298.108 65.4299C298.416 65.4299 298.666 65.1803 298.666 64.8868C298.666 64.7253 298.607 64.5787 298.504 64.4906ZM302.511 65.4299C302.82 65.4299 303.069 65.1658 303.069 64.8429V59.1336H305.153C305.447 59.1336 305.667 58.9137 305.667 58.6201C305.667 58.3411 305.447 58.1209 305.153 58.1209H299.869C299.576 58.1209 299.341 58.3411 299.341 58.6201C299.341 58.9137 299.576 59.1336 299.869 59.1336H301.954V64.8429C301.954 65.1658 302.203 65.4299 302.511 65.4299Z" fill="#F5F5F5"/>
<defs>
<linearGradient id="paint0_linear_59_1327" x1="5.07393" y1="37.8408" x2="103.798" y2="36.8624" gradientUnits="userSpaceOnUse">
<stop stop-color="#00A0E3"/>
<stop offset="1" stop-color="#B245FF"/>
</linearGradient>
</defs>
</svg>
